<svg width="1448" height="783" viewBox="0 0 1448 783" fill="none" xmlns="http://www.w3.org/2000/svg">
<g clip-path="url(#clip0_203_88)" filter="url(#filter0_d_203_88)">
<rect width="1440" height="775" transform="translate(4)" fill="white"/>
<rect x="-44.5586" y="-499" width="565.248" height="547" rx="263.336" transform="rotate(48.1476 -44.5586 -499)" fill="#C58B8B" fill-opacity="0.3"/>
<path d="M1455.46 -162.265L1466.2 174.636C1318.6 171.265 1270.28 69.3668 1264.58 18.8389C1270.63 -120.29 1394.35 -159.867 1455.46 -162.265Z" fill="#F4E7E7" fill-opacity="0.5"/>
<rect x="1503.3" y="468" width="573.749" height="526.672" rx="263.336" transform="rotate(48.1476 1503.3 468)" fill="#C58B8B" fill-opacity="0.3"/>
<path d="M3.96777 925.746L2 572.982C134.071 580.695 175.016 688.67 178.979 741.693C170.401 887.075 58.7307 924.971 3.96777 925.746Z" fill="#F4E7E7" fill-opacity="0.5"/>
<path d="M332.652 158.279C332.592 158.215 332.528 158.155 332.464 158.099C332.512 158.139 332.56 158.183 332.604 158.227C332.62 158.243 332.636 158.263 332.652 158.279Z" fill="#1D1D1B"/>
<path d="M333.276 160.702C333.26 160.774 333.236 160.846 333.212 160.918C333.196 160.97 333.176 161.018 333.152 161.069C333.204 160.95 333.244 160.826 333.276 160.702Z" fill="#1D1D1B"/>
<path d="M333.344 159.806C333.344 159.754 333.336 159.706 333.328 159.658C333.32 159.598 333.308 159.534 333.292 159.474C333.284 159.426 333.268 159.378 333.256 159.33C333.256 159.33 333.252 159.322 333.252 159.318C333.232 159.25 333.212 159.186 333.184 159.122C333.156 159.042 333.12 158.962 333.08 158.886C333.044 158.814 333.004 158.742 332.96 158.675C332.916 158.607 332.868 158.539 332.816 158.475C332.768 158.407 332.712 158.339 332.652 158.279C332.592 158.215 332.528 158.155 332.464 158.099C332.412 158.051 332.361 158.011 332.305 157.971C332.257 157.935 332.205 157.899 332.157 157.871C332.109 157.839 332.061 157.811 332.009 157.783C331.961 157.755 331.913 157.731 331.861 157.707C331.821 157.687 331.781 157.667 331.737 157.655C331.677 157.627 331.613 157.603 331.549 157.583L253.154 130.144C253.126 130.136 253.102 130.124 253.074 130.12C253.01 130.1 252.946 130.084 252.882 130.068C252.818 130.052 252.754 130.04 252.69 130.032C252.49 130 252.29 129.992 252.098 130.008C252.03 130.012 251.962 130.02 251.898 130.032C251.842 130.04 251.786 130.048 251.734 130.06C251.683 130.072 251.631 130.084 251.579 130.1C251.539 130.112 251.495 130.124 251.455 130.14C251.443 130.14 251.431 130.148 251.419 130.152L173.787 157.975C173.787 157.975 173.747 157.987 173.723 157.999C173.655 158.023 173.591 158.047 173.527 158.079C173.467 158.107 173.403 158.135 173.343 158.171C172.88 158.423 172.496 158.822 172.256 159.318C172.24 159.35 172.228 159.382 172.212 159.418C172.192 159.462 172.172 159.51 172.156 159.558C172.156 159.562 172.152 159.566 172.152 159.57C172.136 159.618 172.12 159.666 172.104 159.718C172.092 159.762 172.08 159.81 172.068 159.858C172.052 159.922 172.04 159.986 172.032 160.05C172.02 160.114 172.012 160.182 172.008 160.246C172.004 160.31 172 160.378 172 160.442C172 160.586 172.012 160.73 172.036 160.869C172.06 161.005 172.092 161.145 172.14 161.277C172.16 161.341 172.184 161.405 172.208 161.469C172.208 161.469 172.212 161.469 172.212 161.473C172.24 161.537 172.272 161.601 172.304 161.661C172.336 161.717 172.368 161.777 172.404 161.829C172.444 161.893 172.484 161.953 172.528 162.013C172.572 162.069 172.616 162.125 172.664 162.177C172.768 162.293 172.88 162.401 173.008 162.497C173.103 162.573 173.211 162.645 173.319 162.709C173.383 162.745 173.447 162.777 173.515 162.805C173.579 162.837 173.647 162.865 173.719 162.889C173.775 162.913 173.835 162.929 173.899 162.944C173.911 162.952 173.919 162.952 173.931 162.956L174.011 162.976L211.701 172.996V191.115C211.701 191.211 211.705 191.303 211.713 191.395V191.403C211.609 192.459 212.157 193.514 213.165 194.002C221.553 198.076 235.226 202.97 252.706 203.11H253.478C270.51 203.11 283.923 198.564 292.219 194.714C293.259 194.23 293.831 193.146 293.711 192.067C293.731 191.935 293.743 191.799 293.743 191.663V173.544L303.59 170.673L303.498 190.02C300.24 191.055 297.885 193.994 297.885 197.444C297.885 200.003 299.18 202.278 301.179 203.709C299.16 206.072 297.885 209.774 297.885 214.008C297.885 217.155 298.592 220.01 299.784 222.237C299.04 223.208 298.524 224.524 298.369 226.039C298.021 229.469 299.68 232.256 302.235 232.516C302.363 232.528 302.491 232.536 302.619 232.536C303.946 232.536 305.189 231.824 306.081 230.541C306.373 230.117 306.621 229.633 306.817 229.113C307.092 229.733 307.444 230.293 307.848 230.761C308.76 231.808 309.915 232.376 311.099 232.376C311.338 232.376 311.582 232.352 311.822 232.304C313.929 231.892 315.265 229.817 315.265 227.214C315.265 226.702 315.213 226.175 315.105 225.631C314.849 224.32 314.289 223.112 313.521 222.229C313.461 222.161 313.405 222.097 313.345 222.033C314.473 219.838 315.137 217.059 315.137 214.008C315.137 209.543 313.717 205.668 311.506 203.333C313.226 201.894 314.313 199.787 314.313 197.444C314.313 193.99 311.954 191.055 308.696 190.02L308.796 169.266H308.448L331.353 162.589L331.485 162.553C331.533 162.537 331.581 162.525 331.629 162.505C331.693 162.481 331.757 162.457 331.817 162.433C331.889 162.401 331.961 162.361 332.029 162.325C332.097 162.285 332.165 162.245 332.229 162.201C332.289 162.161 332.349 162.117 332.405 162.069C332.432 162.049 332.46 162.025 332.484 162.001C332.536 161.957 332.58 161.913 332.628 161.861H332.632C332.632 161.861 332.668 161.825 332.68 161.805C332.724 161.757 332.764 161.713 332.8 161.661C332.808 161.657 332.812 161.653 332.812 161.645C332.852 161.601 332.884 161.553 332.916 161.505C332.932 161.481 332.948 161.457 332.964 161.433C332.984 161.405 333 161.377 333.016 161.345C333.032 161.317 333.048 161.289 333.064 161.257C333.096 161.197 333.128 161.133 333.152 161.069C333.204 160.949 333.244 160.825 333.276 160.702C333.288 160.666 333.296 160.63 333.3 160.594C333.3 160.594 333.3 160.59 333.3 160.586C333.312 160.55 333.32 160.514 333.324 160.474C333.36 160.258 333.368 160.03 333.344 159.806ZM288.545 190.667C280.653 194.134 268.579 197.912 253.478 197.912H252.746C237.221 197.788 224.891 193.702 216.899 190.016V187.837C223.024 184.266 229.805 182.235 236.526 181.964C241.867 181.744 247.185 182.591 252.33 184.478L252.334 184.482C252.362 184.47 252.394 184.458 252.422 184.45C255.964 183.183 263.173 181.296 272.241 182.583C279.573 183.631 285.143 186.333 288.545 188.437V190.667ZM288.545 182.443C284.575 180.344 279.365 178.349 272.972 177.438C264.073 176.17 256.736 177.646 252.362 178.993H252.358C247.121 177.298 241.735 176.55 236.318 176.77C229.701 177.038 223.048 178.809 216.899 181.924V162.085C227.818 157.683 239.872 155.368 251.878 155.364H251.906C267.571 155.364 280.253 159.226 288.545 162.737V182.443ZM306.509 221.821C306.253 221.821 305.973 221.713 305.685 221.501C305.677 221.501 305.669 221.485 305.657 221.477C305.573 221.417 305.485 221.341 305.397 221.261C305.397 221.253 305.393 221.253 305.389 221.249C304.234 220.146 303.082 217.519 303.082 214.008C303.082 209.311 305.145 206.192 306.509 206.192C307.872 206.192 309.939 209.311 309.939 214.008C309.939 218.706 307.876 221.821 306.509 221.821ZM309.115 197.444C309.115 198.896 307.76 200.079 306.097 200.079C304.434 200.079 303.082 198.896 303.082 197.444C303.082 195.993 304.434 194.813 306.097 194.813C307.76 194.813 309.115 195.993 309.115 197.444ZM293.743 168.13V161.581C293.743 161.489 293.739 161.397 293.731 161.309C293.847 160.222 293.259 159.134 292.203 158.663C279.757 153.105 265.824 150.167 251.906 150.167H251.874C238.593 150.171 225.251 152.861 213.281 157.955C212.233 158.399 211.629 159.454 211.709 160.534V160.542C211.705 160.606 211.701 160.674 211.701 160.742V167.614L183.331 160.074L252.306 135.353L322.241 159.83L293.743 168.13Z" fill="#1D1D1B"/>
<path d="M252.421 184.45L252.401 184.506C252.378 184.498 252.358 184.49 252.334 184.482C252.362 184.47 252.393 184.458 252.421 184.45Z" fill="#1D1D1B"/>
<path d="M305.657 221.477C305.573 221.417 305.485 221.341 305.397 221.261C305.489 221.325 305.573 221.401 305.657 221.477Z" fill="#1D1D1B"/>
</g>
<defs>
<filter id="filter0_d_203_88" x="0" y="0" width="1448" height="783" filterUnits="userSpaceOnUse" color-interpolation-filters="sRGB">
<feFlood flood-opacity="0" result="BackgroundImageFix"/>
<feColorMatrix in="SourceAlpha" type="matrix" values="0 0 0 0 0 0 0 0 0 0 0 0 0 0 0 0 0 0 127 0" result="hardAlpha"/>
<feOffset dy="4"/>
<feGaussianBlur stdDeviation="2"/>
<feComposite in2="hardAlpha" operator="out"/>
<feColorMatrix type="matrix" values="0 0 0 0 0 0 0 0 0 0 0 0 0 0 0 0 0 0 0.25 0"/>
<feBlend mode="normal" in2="BackgroundImageFix" result="effect1_dropShadow_203_88"/>
<feBlend mode="normal" in="SourceGraphic" in2="effect1_dropShadow_203_88" result="shape"/>
</filter>
<clipPath id="clip0_203_88">
<rect width="1440" height="775" fill="white" transform="translate(4)"/>
</clipPath>
</defs>
</svg>
