<svg width="1007" height="636" viewBox="0 0 1007 636" fill="none" xmlns="http://www.w3.org/2000/svg">
<g clip-path="url(#clip0_182_212)" filter="url(#filter0_d_182_212)">
<rect width="999" height="628" transform="translate(4)" fill="white"/>
<path d="M150.518 133.34C150.48 133.233 150.451 133.125 150.436 133.017C150.455 133.125 150.48 133.236 150.518 133.34Z" fill="#1D1D1B"/>
<path d="M150.572 133.493C150.556 133.455 150.543 133.417 150.527 133.376C150.524 133.363 150.518 133.354 150.518 133.341C150.533 133.392 150.552 133.442 150.572 133.493Z" fill="#1D1D1B"/>
<path d="M246.577 161.457C246.529 161.406 246.479 161.358 246.428 161.314C246.466 161.346 246.504 161.381 246.539 161.416C246.551 161.428 246.564 161.444 246.577 161.457Z" fill="#1D1D1B"/>
<path d="M247.072 163.381C247.059 163.438 247.04 163.495 247.021 163.552C247.009 163.594 246.993 163.632 246.974 163.673C247.015 163.578 247.047 163.479 247.072 163.381Z" fill="#1D1D1B"/>
<path d="M247.126 162.669C247.126 162.628 247.12 162.59 247.113 162.552C247.107 162.504 247.098 162.454 247.085 162.406C247.079 162.368 247.066 162.33 247.056 162.292C247.056 162.292 247.053 162.285 247.053 162.282C247.037 162.228 247.021 162.177 246.999 162.127C246.977 162.063 246.948 162 246.917 161.939C246.888 161.882 246.856 161.825 246.821 161.771C246.786 161.717 246.748 161.663 246.707 161.612C246.669 161.558 246.625 161.504 246.577 161.457C246.529 161.406 246.478 161.358 246.428 161.314C246.386 161.276 246.345 161.244 246.301 161.212C246.263 161.184 246.221 161.155 246.183 161.133C246.145 161.107 246.107 161.085 246.066 161.063C246.028 161.041 245.99 161.022 245.948 161.003C245.917 160.987 245.885 160.971 245.85 160.961C245.802 160.939 245.751 160.92 245.701 160.904L183.446 139.114C183.423 139.108 183.404 139.098 183.382 139.095C183.331 139.079 183.281 139.067 183.23 139.054C183.179 139.041 183.128 139.032 183.077 139.025C182.919 139 182.76 138.994 182.607 139.006C182.554 139.01 182.5 139.016 182.449 139.025C182.404 139.032 182.36 139.038 182.319 139.048C182.277 139.057 182.236 139.067 182.195 139.079C182.163 139.089 182.128 139.098 182.096 139.111C182.087 139.111 182.077 139.117 182.068 139.121L120.419 161.215C120.419 161.215 120.387 161.225 120.368 161.234C120.314 161.253 120.264 161.272 120.213 161.298C120.165 161.32 120.114 161.342 120.067 161.371C119.698 161.571 119.394 161.888 119.203 162.282C119.19 162.307 119.181 162.333 119.168 162.361C119.152 162.396 119.137 162.434 119.124 162.473C119.124 162.476 119.121 162.479 119.121 162.482C119.108 162.52 119.095 162.558 119.083 162.6C119.073 162.635 119.063 162.673 119.054 162.711C119.041 162.762 119.032 162.812 119.025 162.863C119.016 162.914 119.01 162.968 119.006 163.019C119.003 163.069 119 163.123 119 163.174C119 163.289 119.01 163.403 119.029 163.514C119.048 163.622 119.073 163.733 119.111 163.838C119.127 163.889 119.146 163.939 119.165 163.99C119.165 163.99 119.168 163.99 119.168 163.993C119.19 164.044 119.216 164.095 119.241 164.143C119.267 164.187 119.292 164.235 119.321 164.276C119.352 164.327 119.384 164.374 119.419 164.422C119.454 164.466 119.489 164.511 119.527 164.552C119.61 164.644 119.698 164.73 119.8 164.806C119.876 164.867 119.962 164.924 120.048 164.974C120.099 165.003 120.149 165.028 120.203 165.051C120.254 165.076 120.308 165.098 120.365 165.117C120.41 165.136 120.457 165.149 120.508 165.162C120.518 165.168 120.524 165.168 120.534 165.171L120.597 165.187L150.528 173.144V187.533C150.528 187.609 150.531 187.682 150.537 187.755V187.761C150.454 188.599 150.889 189.438 151.69 189.825C158.351 193.06 169.209 196.946 183.09 197.058H183.703C197.228 197.058 207.88 193.448 214.468 190.39C215.294 190.006 215.748 189.146 215.653 188.288C215.669 188.184 215.678 188.076 215.678 187.968V173.579L223.498 171.299L223.425 186.663C220.837 187.485 218.967 189.819 218.967 192.559C218.967 194.591 219.996 196.397 221.583 197.534C219.98 199.41 218.967 202.35 218.967 205.713C218.967 208.211 219.529 210.478 220.475 212.247C219.885 213.018 219.475 214.063 219.351 215.266C219.075 217.99 220.393 220.203 222.422 220.41C222.523 220.419 222.625 220.425 222.726 220.425C223.781 220.425 224.768 219.86 225.476 218.841C225.708 218.505 225.905 218.12 226.06 217.708C226.279 218.2 226.559 218.644 226.879 219.016C227.603 219.848 228.521 220.298 229.461 220.298C229.651 220.298 229.845 220.279 230.035 220.241C231.709 219.914 232.769 218.266 232.769 216.2C232.769 215.793 232.728 215.374 232.642 214.942C232.439 213.901 231.994 212.942 231.385 212.24C231.337 212.186 231.293 212.136 231.245 212.085C232.14 210.342 232.667 208.135 232.667 205.713C232.667 202.166 231.54 199.09 229.784 197.235C231.15 196.092 232.013 194.419 232.013 192.559C232.013 189.815 230.14 187.485 227.552 186.663L227.632 170.181H227.356L245.545 164.879L245.65 164.851C245.688 164.838 245.726 164.828 245.764 164.813C245.815 164.794 245.866 164.774 245.913 164.755C245.97 164.73 246.028 164.698 246.082 164.67C246.136 164.638 246.19 164.606 246.24 164.571C246.288 164.54 246.336 164.505 246.38 164.466C246.402 164.451 246.425 164.432 246.444 164.413C246.485 164.378 246.52 164.343 246.558 164.301H246.561C246.561 164.301 246.59 164.273 246.599 164.257C246.634 164.219 246.666 164.184 246.694 164.143C246.701 164.139 246.704 164.136 246.704 164.13C246.736 164.095 246.761 164.057 246.786 164.019C246.799 164 246.812 163.981 246.825 163.962C246.84 163.939 246.853 163.917 246.866 163.892C246.879 163.87 246.891 163.847 246.904 163.822C246.929 163.774 246.955 163.724 246.974 163.673C247.015 163.577 247.047 163.479 247.072 163.381C247.082 163.352 247.088 163.323 247.091 163.295C247.091 163.295 247.091 163.292 247.091 163.289C247.101 163.26 247.107 163.231 247.11 163.2C247.139 163.028 247.145 162.847 247.126 162.669ZM211.551 187.177C205.283 189.93 195.695 192.93 183.703 192.93H183.122C170.793 192.832 161.002 189.587 154.655 186.66V184.929C159.519 182.094 164.904 180.481 170.241 180.265C174.483 180.091 178.705 180.764 182.792 182.262L182.795 182.265C182.817 182.256 182.842 182.246 182.865 182.24C185.678 181.234 191.402 179.735 198.603 180.757C204.426 181.589 208.849 183.735 211.551 185.405V187.177ZM211.551 180.646C208.398 178.979 204.261 177.395 199.184 176.671C192.117 175.665 186.29 176.836 182.817 177.906H182.814C178.655 176.56 174.378 175.966 170.076 176.141C164.821 176.354 159.538 177.76 154.655 180.233V164.479C163.326 160.984 172.898 159.145 182.433 159.142H182.455C194.895 159.142 204.966 162.209 211.551 164.997V180.646ZM225.816 211.917C225.613 211.917 225.39 211.831 225.162 211.662C225.155 211.662 225.149 211.65 225.139 211.643C225.073 211.596 225.003 211.536 224.933 211.472C224.933 211.466 224.93 211.466 224.927 211.462C224.009 210.586 223.095 208.5 223.095 205.713C223.095 201.982 224.733 199.506 225.816 199.506C226.898 199.506 228.54 201.982 228.54 205.713C228.54 209.443 226.902 211.917 225.816 211.917ZM227.886 192.559C227.886 193.711 226.81 194.651 225.489 194.651C224.168 194.651 223.095 193.711 223.095 192.559C223.095 191.406 224.168 190.47 225.489 190.47C226.81 190.47 227.886 191.406 227.886 192.559ZM215.678 169.28V164.079C215.678 164.006 215.675 163.933 215.669 163.863C215.761 163 215.294 162.136 214.456 161.761C204.572 157.348 193.507 155.015 182.455 155.015H182.43C171.882 155.018 161.288 157.155 151.782 161.199C150.95 161.552 150.47 162.39 150.534 163.247V163.254C150.531 163.304 150.528 163.358 150.528 163.412V168.87L127.998 162.882L182.773 143.251L238.309 162.688L215.678 169.28Z" fill="#1D1D1B"/>
<path d="M182.865 182.24L182.849 182.285C182.83 182.278 182.814 182.272 182.795 182.266C182.817 182.256 182.842 182.247 182.865 182.24Z" fill="#1D1D1B"/>
<path d="M225.139 211.644C225.072 211.596 225.002 211.536 224.933 211.472C225.006 211.523 225.072 211.583 225.139 211.644Z" fill="#1D1D1B"/>
<rect x="-44.5586" y="-499" width="565.248" height="547" rx="263.336" transform="rotate(48.1476 -44.5586 -499)" fill="#C58B8B" fill-opacity="0.3"/>
<path d="M1053.46 -157L1064.2 179.901C916.601 176.53 868.284 74.6315 862.575 24.1035C868.627 -115.026 992.352 -154.603 1053.46 -157Z" fill="#F4E7E7" fill-opacity="0.5"/>
<rect x="1080.3" y="314" width="573.749" height="526.672" rx="263.336" transform="rotate(48.1476 1080.3 314)" fill="#C58B8B" fill-opacity="0.3"/>
<path d="M5.96777 775.746L4 422.982C136.071 430.695 177.016 538.67 180.979 591.693C172.401 737.075 60.7307 774.971 5.96777 775.746Z" fill="#F4E7E7" fill-opacity="0.5"/>
</g>
<defs>
<filter id="filter0_d_182_212" x="0" y="0" width="1007" height="636" filterUnits="userSpaceOnUse" color-interpolation-filters="sRGB">
<feFlood flood-opacity="0" result="BackgroundImageFix"/>
<feColorMatrix in="SourceAlpha" type="matrix" values="0 0 0 0 0 0 0 0 0 0 0 0 0 0 0 0 0 0 127 0" result="hardAlpha"/>
<feOffset dy="4"/>
<feGaussianBlur stdDeviation="2"/>
<feComposite in2="hardAlpha" operator="out"/>
<feColorMatrix type="matrix" values="0 0 0 0 0 0 0 0 0 0 0 0 0 0 0 0 0 0 0.25 0"/>
<feBlend mode="normal" in2="BackgroundImageFix" result="effect1_dropShadow_182_212"/>
<feBlend mode="normal" in="SourceGraphic" in2="effect1_dropShadow_182_212" result="shape"/>
</filter>
<clipPath id="clip0_182_212">
<rect width="999" height="628" fill="white" transform="translate(4)"/>
</clipPath>
</defs>
</svg>
