<svg width="1913" height="1037" viewBox="0 0 1913 1037" fill="none" xmlns="http://www.w3.org/2000/svg">
<g clip-path="url(#clip0_211_143)" filter="url(#filter0_d_211_143)">
<rect width="1905" height="1029" transform="translate(4)" fill="white"/>
<g clip-path="url(#clip1_211_143)">
<path d="M221.698 220.046C221.632 219.859 221.582 219.672 221.555 219.484C221.588 219.672 221.632 219.864 221.698 220.046Z" fill="#1D1D1B"/>
<path d="M221.792 220.311C221.764 220.245 221.742 220.178 221.715 220.107C221.709 220.085 221.698 220.068 221.698 220.046C221.726 220.134 221.759 220.223 221.792 220.311Z" fill="#1D1D1B"/>
<path d="M442.909 215.914C442.827 215.826 442.739 215.743 442.65 215.666C442.717 215.721 442.783 215.782 442.843 215.842C442.865 215.864 442.887 215.892 442.909 215.914Z" fill="#1D1D1B"/>
<path d="M443.768 219.253C443.746 219.352 443.713 219.451 443.68 219.55C443.658 219.622 443.631 219.688 443.598 219.76C443.669 219.594 443.724 219.424 443.768 219.253Z" fill="#1D1D1B"/>
<path d="M443.862 218.019C443.862 217.947 443.851 217.881 443.84 217.815C443.829 217.732 443.813 217.644 443.791 217.561C443.78 217.495 443.758 217.429 443.741 217.363C443.741 217.363 443.736 217.352 443.736 217.346C443.708 217.253 443.681 217.165 443.642 217.076C443.603 216.966 443.554 216.856 443.499 216.751C443.449 216.652 443.394 216.553 443.333 216.459C443.273 216.366 443.207 216.272 443.135 216.184C443.069 216.09 442.992 215.996 442.909 215.914C442.826 215.826 442.738 215.743 442.65 215.666C442.579 215.6 442.507 215.545 442.43 215.49C442.364 215.44 442.292 215.39 442.226 215.352C442.16 215.308 442.094 215.269 442.022 215.231C441.956 215.192 441.89 215.159 441.818 215.126C441.763 215.098 441.708 215.071 441.647 215.054C441.565 215.016 441.477 214.983 441.388 214.955L333.348 177.14C333.309 177.129 333.276 177.112 333.238 177.107C333.15 177.079 333.062 177.057 332.973 177.035C332.885 177.013 332.797 176.997 332.709 176.986C332.433 176.941 332.158 176.93 331.893 176.953C331.8 176.958 331.706 176.969 331.618 176.986C331.541 176.997 331.464 177.008 331.392 177.024C331.32 177.041 331.249 177.057 331.177 177.079C331.122 177.096 331.061 177.112 331.006 177.134C330.99 177.134 330.973 177.145 330.957 177.151L223.969 215.495C223.969 215.495 223.914 215.512 223.881 215.528C223.787 215.561 223.699 215.594 223.611 215.638C223.528 215.677 223.44 215.715 223.357 215.765C222.718 216.112 222.189 216.663 221.858 217.346C221.836 217.39 221.82 217.435 221.798 217.484C221.77 217.545 221.743 217.611 221.721 217.677C221.721 217.683 221.715 217.688 221.715 217.694C221.693 217.76 221.671 217.826 221.649 217.897C221.633 217.958 221.616 218.024 221.6 218.09C221.577 218.178 221.561 218.267 221.55 218.355C221.533 218.443 221.522 218.537 221.517 218.625C221.511 218.713 221.506 218.807 221.506 218.895C221.506 219.093 221.522 219.291 221.555 219.484C221.589 219.672 221.633 219.864 221.699 220.046C221.726 220.134 221.759 220.223 221.792 220.311C221.792 220.311 221.798 220.311 221.798 220.316C221.836 220.404 221.881 220.493 221.925 220.575C221.969 220.652 222.013 220.735 222.062 220.807C222.117 220.895 222.173 220.978 222.233 221.06C222.294 221.137 222.354 221.214 222.421 221.286C222.564 221.446 222.718 221.595 222.894 221.727C223.027 221.832 223.175 221.931 223.324 222.019C223.412 222.068 223.5 222.113 223.594 222.151C223.682 222.195 223.776 222.234 223.875 222.267C223.952 222.3 224.035 222.322 224.123 222.344C224.14 222.355 224.151 222.355 224.167 222.361L224.277 222.388L276.22 236.196V261.168C276.22 261.3 276.226 261.427 276.237 261.553V261.564C276.094 263.019 276.848 264.474 278.237 265.146C289.797 270.76 308.641 277.505 332.731 277.698H333.794C357.267 277.698 375.753 271.433 387.186 266.127C388.619 265.46 389.407 263.967 389.242 262.479C389.269 262.297 389.286 262.11 389.286 261.922V236.951L402.857 232.995L402.73 259.658C398.239 261.085 394.994 265.135 394.994 269.89C394.994 273.416 396.779 276.551 399.534 278.524C396.752 281.78 394.994 286.883 394.994 292.718C394.994 297.054 395.969 300.988 397.611 304.057C396.586 305.396 395.876 307.209 395.661 309.297C395.181 314.025 397.468 317.866 400.989 318.224C401.165 318.24 401.342 318.251 401.518 318.251C403.347 318.251 405.061 317.27 406.29 315.502C406.692 314.918 407.033 314.251 407.303 313.535C407.684 314.389 408.169 315.16 408.725 315.805C409.981 317.248 411.574 318.031 413.205 318.031C413.535 318.031 413.871 317.998 414.202 317.932C417.106 317.364 418.946 314.504 418.946 310.917C418.946 310.212 418.874 309.485 418.726 308.735C418.373 306.928 417.602 305.264 416.544 304.046C416.461 303.953 416.384 303.865 416.301 303.776C417.855 300.751 418.77 296.922 418.77 292.718C418.77 286.563 416.814 281.224 413.767 278.006C416.136 276.023 417.635 273.119 417.635 269.89C417.635 265.129 414.384 261.085 409.893 259.658L410.031 231.055H409.552L441.118 221.854L441.3 221.804C441.366 221.782 441.432 221.765 441.499 221.738C441.587 221.705 441.675 221.672 441.758 221.639C441.857 221.595 441.956 221.54 442.05 221.49C442.143 221.435 442.237 221.38 442.325 221.319C442.408 221.264 442.49 221.203 442.568 221.137C442.606 221.11 442.645 221.077 442.678 221.044C442.749 220.983 442.81 220.922 442.876 220.851H442.882C442.882 220.851 442.931 220.801 442.948 220.774C443.008 220.708 443.063 220.647 443.113 220.575C443.124 220.57 443.13 220.564 443.13 220.553C443.185 220.493 443.229 220.426 443.273 220.36C443.295 220.327 443.317 220.294 443.339 220.261C443.366 220.223 443.388 220.184 443.411 220.14C443.433 220.101 443.455 220.063 443.477 220.019C443.521 219.936 443.565 219.848 443.598 219.76C443.67 219.594 443.725 219.424 443.769 219.253C443.785 219.203 443.796 219.154 443.802 219.104C443.802 219.104 443.802 219.099 443.802 219.093C443.818 219.043 443.829 218.994 443.835 218.939C443.884 218.641 443.895 218.327 443.862 218.019ZM382.123 260.55C371.246 265.328 354.606 270.535 333.794 270.535H332.786C311.391 270.364 294.398 264.733 283.383 259.652V256.649C291.825 251.729 301.17 248.93 310.432 248.555C317.793 248.252 325.122 249.42 332.213 252.021L332.219 252.026C332.257 252.01 332.301 251.993 332.34 251.982C337.222 250.236 347.156 247.635 359.653 249.409C369.758 250.853 377.434 254.578 382.123 257.476V260.55ZM382.123 249.216C376.651 246.324 369.472 243.574 360.661 242.318C348.396 240.571 338.285 242.604 332.257 244.461H332.252C325.033 242.125 317.611 241.095 310.145 241.398C301.026 241.767 291.858 244.208 283.383 248.5V221.159C298.431 215.093 315.044 211.903 331.59 211.897H331.629C353.217 211.897 370.695 217.22 382.123 222.057V249.216ZM406.879 303.484C406.527 303.484 406.141 303.336 405.744 303.044C405.733 303.044 405.722 303.022 405.706 303.011C405.59 302.928 405.469 302.823 405.347 302.713C405.347 302.702 405.342 302.702 405.336 302.696C403.744 301.176 402.157 297.556 402.157 292.718C402.157 286.244 405 281.946 406.879 281.946C408.758 281.946 411.607 286.244 411.607 292.718C411.607 299.192 408.764 303.484 406.879 303.484ZM410.472 269.89C410.472 271.89 408.604 273.521 406.312 273.521C404.019 273.521 402.157 271.89 402.157 269.89C402.157 267.89 404.019 266.264 406.312 266.264C408.604 266.264 410.472 267.89 410.472 269.89ZM389.286 229.49V220.465C389.286 220.338 389.28 220.212 389.269 220.09C389.429 218.592 388.619 217.093 387.164 216.443C370.012 208.784 350.809 204.734 331.629 204.734H331.585C313.281 204.739 294.894 208.448 278.397 215.467C276.953 216.079 276.121 217.534 276.231 219.021V219.032C276.226 219.121 276.22 219.214 276.22 219.308V228.78L237.121 218.388L332.18 184.319L428.561 218.052L389.286 229.49Z" fill="#1D1D1B"/>
<path d="M332.339 251.982L332.312 252.059C332.279 252.048 332.252 252.037 332.219 252.026C332.257 252.01 332.301 251.993 332.339 251.982Z" fill="#1D1D1B"/>
<path d="M405.706 303.011C405.59 302.928 405.469 302.823 405.348 302.713C405.474 302.801 405.59 302.906 405.706 303.011Z" fill="#1D1D1B"/>
<path d="M225.864 217.683C225.799 217.498 225.75 217.314 225.723 217.129C225.755 217.314 225.799 217.504 225.864 217.683Z" fill="#1D1D1B"/>
<path d="M225.957 217.943C225.929 217.878 225.908 217.813 225.881 217.742C225.875 217.721 225.864 217.704 225.864 217.683C225.891 217.77 225.924 217.856 225.957 217.943Z" fill="#1D1D1B"/>
</g>
<rect x="4.44141" y="-468" width="565.248" height="547" rx="263.336" transform="rotate(48.1476 4.44141 -468)" fill="#C58B8B" fill-opacity="0.3"/>
<path d="M1908.84 -274L1924.31 211.035C1711.81 206.182 1642.25 59.4788 1634.03 -13.266C1642.74 -213.57 1820.87 -270.549 1908.84 -274Z" fill="#F4E7E7" fill-opacity="0.5"/>
<rect x="1872.3" y="632" width="573.749" height="526.672" rx="263.336" transform="rotate(48.1476 1872.3 632)" fill="#C58B8B" fill-opacity="0.3"/>
<path d="M4.21438 1317.79L0.918945 727.014C271.809 739.654 355.568 920.394 363.586 1009.18C345.686 1252.68 116.546 1316.37 4.21438 1317.79Z" fill="#F4E7E7" fill-opacity="0.5"/>
</g>
<defs>
<filter id="filter0_d_211_143" x="0" y="0" width="1913" height="1037" filterUnits="userSpaceOnUse" color-interpolation-filters="sRGB">
<feFlood flood-opacity="0" result="BackgroundImageFix"/>
<feColorMatrix in="SourceAlpha" type="matrix" values="0 0 0 0 0 0 0 0 0 0 0 0 0 0 0 0 0 0 127 0" result="hardAlpha"/>
<feOffset dy="4"/>
<feGaussianBlur stdDeviation="2"/>
<feComposite in2="hardAlpha" operator="out"/>
<feColorMatrix type="matrix" values="0 0 0 0 0 0 0 0 0 0 0 0 0 0 0 0 0 0 0.25 0"/>
<feBlend mode="normal" in2="BackgroundImageFix" result="effect1_dropShadow_211_143"/>
<feBlend mode="normal" in="SourceGraphic" in2="effect1_dropShadow_211_143" result="shape"/>
</filter>
<clipPath id="clip0_211_143">
<rect width="1905" height="1029" fill="white" transform="translate(4)"/>
</clipPath>
<clipPath id="clip1_211_143">
<rect width="323" height="323" fill="white" transform="translate(172 65)"/>
</clipPath>
</defs>
</svg>
