<svg width="363" height="469" viewBox="0 0 363 469" fill="none" xmlns="http://www.w3.org/2000/svg">
<g clip-path="url(#clip0_102_30)">
<rect width="363" height="469" fill="white"/>
<path d="M193.511 52.47C193.488 52.4066 193.471 52.3432 193.462 52.2798C193.473 52.3432 193.488 52.4085 193.511 52.47Z" fill="#1D1D1B"/>
<path d="M193.542 52.5587C193.533 52.5365 193.525 52.5143 193.516 52.4903C193.514 52.4829 193.511 52.4774 193.511 52.47C193.52 52.4995 193.531 52.5291 193.542 52.5587Z" fill="#1D1D1B"/>
<path d="M268.371 51.0707C268.343 51.0411 268.313 51.0134 268.284 50.9875C268.306 51.006 268.328 51.0264 268.348 51.0467C268.356 51.0541 268.363 51.0633 268.371 51.0707Z" fill="#1D1D1B"/>
<path d="M268.662 52.2014C268.655 52.235 268.644 52.2685 268.632 52.3021C268.625 52.3263 268.616 52.3487 268.604 52.373C268.629 52.317 268.647 52.2592 268.662 52.2014Z" fill="#1D1D1B"/>
<path d="M268.694 51.7837C268.694 51.7594 268.69 51.7371 268.687 51.7147C268.683 51.6867 268.677 51.6569 268.67 51.6289C268.666 51.6065 268.659 51.5842 268.653 51.5618C268.653 51.5618 268.651 51.558 268.651 51.5562C268.642 51.5245 268.632 51.4946 268.619 51.4648C268.606 51.4275 268.59 51.3902 268.571 51.3548C268.554 51.3212 268.536 51.2877 268.515 51.256C268.494 51.2243 268.472 51.1926 268.448 51.1627C268.425 51.131 268.399 51.0993 268.371 51.0714C268.343 51.0415 268.314 51.0136 268.284 50.9875C268.26 50.9651 268.235 50.9464 268.209 50.9278C268.187 50.911 268.163 50.8942 268.14 50.8812C268.118 50.8663 268.095 50.8532 268.071 50.8401C268.049 50.8271 268.026 50.8159 268.002 50.8047C267.984 50.7954 267.965 50.7861 267.944 50.7805C267.916 50.7674 267.887 50.7562 267.857 50.7469L231.294 37.9497C231.281 37.946 231.27 37.9404 231.257 37.9385C231.227 37.9292 231.197 37.9217 231.168 37.9143C231.138 37.9068 231.108 37.9012 231.078 37.8975C230.985 37.8826 230.892 37.8788 230.802 37.8863C230.77 37.8882 230.739 37.8919 230.709 37.8975C230.683 37.9012 230.657 37.9049 230.632 37.9105C230.608 37.9161 230.584 37.9217 230.56 37.9292C230.541 37.9348 230.521 37.9404 230.502 37.9478C230.496 37.9478 230.491 37.9516 230.485 37.9534L194.279 50.9297C194.279 50.9297 194.26 50.9352 194.249 50.9408C194.217 50.952 194.187 50.9632 194.158 50.9781C194.13 50.9912 194.1 51.0042 194.072 51.021C193.856 51.1385 193.677 51.325 193.565 51.5562C193.557 51.5711 193.552 51.586 193.544 51.6028C193.535 51.6233 193.525 51.6457 193.518 51.6681C193.518 51.6699 193.516 51.6718 193.516 51.6737C193.509 51.696 193.501 51.7184 193.494 51.7426C193.488 51.7632 193.483 51.7855 193.477 51.8079C193.47 51.8377 193.464 51.8676 193.46 51.8974C193.455 51.9273 193.451 51.959 193.449 51.9888C193.447 52.0186 193.445 52.0503 193.445 52.0802C193.445 52.1473 193.451 52.2144 193.462 52.2797C193.473 52.3431 193.488 52.4083 193.511 52.4699C193.52 52.4997 193.531 52.5295 193.542 52.5594C193.542 52.5594 193.544 52.5594 193.544 52.5612C193.557 52.5911 193.572 52.6209 193.587 52.6489C193.602 52.675 193.617 52.703 193.634 52.7272C193.652 52.757 193.671 52.785 193.691 52.813C193.712 52.8391 193.732 52.8652 193.755 52.8894C193.803 52.9435 193.856 52.9938 193.915 53.0386C193.96 53.074 194.01 53.1076 194.061 53.1374C194.09 53.1542 194.12 53.1691 194.152 53.1822C194.182 53.1971 194.214 53.2101 194.247 53.2213C194.273 53.2325 194.301 53.24 194.331 53.2474C194.337 53.2512 194.34 53.2512 194.346 53.253L194.383 53.2624L211.961 57.9352V66.3859C211.961 66.4306 211.963 66.4735 211.967 66.5164V66.5201C211.919 67.0124 212.174 67.5047 212.644 67.7322C216.556 69.6323 222.933 71.9146 231.085 71.9799H231.445C239.389 71.9799 245.645 69.8598 249.514 68.0641C249.999 67.8385 250.265 67.3331 250.21 66.8297C250.219 66.7682 250.224 66.7048 250.224 66.6414V58.1907L254.817 56.8518L254.774 65.875C253.255 66.3579 252.156 67.7285 252.156 69.3377C252.156 70.5311 252.76 71.592 253.693 72.2596C252.751 73.3616 252.156 75.0883 252.156 77.063C252.156 78.5305 252.486 79.8619 253.042 80.9005C252.695 81.3536 252.455 81.9671 252.382 82.6738C252.22 84.2737 252.993 85.5733 254.185 85.6945C254.245 85.7001 254.304 85.7039 254.364 85.7039C254.983 85.7039 255.563 85.372 255.979 84.7734C256.115 84.5757 256.231 84.3501 256.322 84.1077C256.451 84.3967 256.615 84.6578 256.803 84.8759C257.228 85.3645 257.767 85.6293 258.319 85.6293C258.431 85.6293 258.545 85.6181 258.656 85.5957C259.639 85.4037 260.262 84.4359 260.262 83.222C260.262 82.9833 260.238 82.7372 260.187 82.4836C260.068 81.872 259.807 81.3088 259.449 80.8967C259.421 80.865 259.395 80.8352 259.367 80.8054C259.893 79.7817 260.202 78.4857 260.202 77.063C260.202 74.9802 259.54 73.1733 258.509 72.0843C259.311 71.413 259.818 70.4304 259.818 69.3377C259.818 67.7266 258.718 66.3579 257.198 65.875L257.245 56.1955H257.083L267.765 53.0815L267.827 53.0647C267.849 53.0572 267.872 53.0516 267.894 53.0423C267.924 53.0311 267.954 53.0199 267.982 53.0088C268.015 52.9938 268.049 52.9752 268.081 52.9584C268.112 52.9398 268.144 52.9211 268.174 52.9006C268.202 52.882 268.23 52.8615 268.256 52.8391C268.269 52.8298 268.282 52.8186 268.293 52.8074C268.317 52.7869 268.338 52.7664 268.36 52.7421H268.362C268.362 52.7421 268.379 52.7253 268.384 52.716C268.405 52.6936 268.424 52.6731 268.44 52.6489C268.444 52.647 268.446 52.6451 268.446 52.6414C268.465 52.6209 268.48 52.5985 268.494 52.5762C268.502 52.565 268.509 52.5538 268.517 52.5426C268.526 52.5295 268.534 52.5165 268.541 52.5016C268.549 52.4885 268.556 52.4755 268.563 52.4605C268.578 52.4326 268.593 52.4027 268.604 52.3729C268.629 52.317 268.647 52.2592 268.662 52.2014C268.668 52.1846 268.672 52.1678 268.673 52.151C268.673 52.151 268.673 52.1491 268.673 52.1473C268.679 52.1305 268.683 52.1137 268.685 52.0951C268.701 51.9944 268.705 51.8881 268.694 51.7837ZM247.8 66.1771C244.12 67.7937 238.488 69.5558 231.445 69.5558H231.104C223.864 69.498 218.113 67.5923 214.386 65.8731V64.8569C217.242 63.1917 220.405 62.2445 223.539 62.1177C226.03 62.0151 228.51 62.4104 230.91 63.2905L230.912 63.2924C230.925 63.2868 230.94 63.2812 230.953 63.2775C232.605 62.6864 235.967 61.8063 240.196 62.4067C243.616 62.8952 246.214 64.1558 247.8 65.1366V66.1771ZM247.8 62.3414C245.949 61.3625 243.519 60.432 240.538 60.0069C236.387 59.4158 232.965 60.1038 230.925 60.7322H230.923C228.481 59.9416 225.969 59.5929 223.442 59.6955C220.356 59.8204 217.253 60.6464 214.386 62.099V52.8465C219.478 50.7935 225.1 49.7139 230.7 49.712H230.713C238.018 49.712 243.933 51.5133 247.8 53.1505V62.3414ZM256.178 80.7066C256.059 80.7066 255.928 80.6562 255.794 80.5574C255.79 80.5574 255.787 80.5499 255.781 80.5462C255.742 80.5182 255.701 80.4828 255.66 80.4455C255.66 80.4418 255.658 80.4418 255.656 80.4399C255.117 79.9253 254.58 78.7002 254.58 77.063C254.58 74.872 255.542 73.4176 256.178 73.4176C256.814 73.4176 257.778 74.872 257.778 77.063C257.778 79.254 256.816 80.7066 256.178 80.7066ZM257.394 69.3377C257.394 70.0145 256.762 70.5665 255.986 70.5665C255.211 70.5665 254.58 70.0145 254.58 69.3377C254.58 68.6608 255.211 68.1107 255.986 68.1107C256.762 68.1107 257.394 68.6608 257.394 69.3377ZM250.224 55.6659V52.6116C250.224 52.5687 250.223 52.5258 250.219 52.4848C250.273 51.9776 249.999 51.4704 249.507 51.2504C243.702 48.6585 237.203 47.288 230.713 47.288H230.698C224.503 47.2898 218.281 48.5447 212.698 50.9203C212.209 51.1273 211.928 51.6196 211.965 52.123V52.1268C211.963 52.1566 211.961 52.1883 211.961 52.22V55.4254L198.73 51.9086L230.899 40.3794L263.516 51.7949L250.224 55.6659Z" fill="#1D1D1B"/>
<path d="M230.953 63.2776L230.944 63.3035C230.932 63.2998 230.923 63.2961 230.912 63.2924C230.925 63.2868 230.94 63.2813 230.953 63.2776Z" fill="#1D1D1B"/>
<path d="M255.781 80.5462C255.742 80.5183 255.701 80.4829 255.66 80.4456C255.703 80.4754 255.742 80.5108 255.781 80.5462Z" fill="#1D1D1B"/>
<rect x="413.997" y="189" width="502.262" height="455.111" rx="227.556" transform="rotate(48.1476 413.997 189)" fill="#C58B8B" fill-opacity="0.22"/>
<rect x="-88.7003" y="-497" width="573.749" height="526.672" rx="263.336" transform="rotate(48.1476 -88.7003 -497)" fill="#C58B8B" fill-opacity="0.3"/>
</g>
<defs>
<clipPath id="clip0_102_30">
<rect width="363" height="469" fill="white"/>
</clipPath>
</defs>
</svg>
