<svg width="1448" height="636" viewBox="0 0 1448 636" fill="none" xmlns="http://www.w3.org/2000/svg">
<g clip-path="url(#clip0_170_78)" filter="url(#filter0_d_170_78)">
<rect width="1440" height="628" transform="translate(4)" fill="white"/>
<rect x="-44.5586" y="-499" width="565.248" height="547" rx="263.336" transform="rotate(48.1476 -44.5586 -499)" fill="#C58B8B" fill-opacity="0.3"/>
<path d="M1455.46 -162.265L1466.2 174.636C1318.6 171.265 1270.28 69.3668 1264.58 18.8389C1270.63 -120.29 1394.35 -159.867 1455.46 -162.265Z" fill="#F4E7E7" fill-opacity="0.5"/>
<rect x="1478.3" y="314" width="573.749" height="526.672" rx="263.336" transform="rotate(48.1476 1478.3 314)" fill="#C58B8B" fill-opacity="0.3"/>
<path d="M5.96777 775.746L4 422.982C136.071 430.695 177.016 538.67 180.979 591.693C172.401 737.075 60.7307 774.971 5.96777 775.746Z" fill="#F4E7E7" fill-opacity="0.5"/>
</g>
<g clip-path="url(#clip1_170_78)">
<path d="M290.128 118.019L264.079 117.971C264.06 117.971 264.046 117.957 264.046 117.938V108.817C264.046 107.605 263.297 106.478 262.138 106.119C261.79 106.009 261.442 105.975 261.095 106.018C260.999 106.006 260.904 106.001 260.808 106.001H227.618C227.455 106.001 227.292 106.015 227.138 106.046C227.135 106.046 227.132 106.046 227.127 106.046C226.97 106.015 226.807 106.001 226.641 106.001C225.171 106.001 223.976 107.193 223.976 108.666V117.438C223.976 117.604 223.99 117.767 224.018 117.924C224.021 117.943 224.007 117.963 223.987 117.963H198.758L198.436 118.027C198.402 118.033 198.256 118.058 197.911 118.109C193.796 118.706 190.558 122.233 190.028 126.604C190.017 126.685 190.006 126.766 190 126.848V189.027C190 189.027 190 189.027 190 189.029C190.008 189.153 190.022 189.276 190.042 189.394C190.606 193.734 193.894 197.224 198.063 197.813C198.388 197.861 198.542 197.886 198.596 197.892C198.604 197.892 198.61 197.892 198.618 197.886L198.913 197.69L198.837 197.903L215.097 197.959V197.967H290.17L290.492 197.903C290.532 197.894 290.68 197.869 291.017 197.819C295.113 197.227 298.336 193.734 298.892 189.394C298.906 189.302 298.917 189.209 298.925 189.116V126.87C298.92 126.78 298.909 126.688 298.897 126.601C298.356 122.227 295.057 118.706 290.865 118.114C290.512 118.064 290.36 118.039 290.321 118.03L290.128 118.016V118.019ZM229.304 117.438V111.365C229.304 111.345 229.318 111.331 229.337 111.331H258.679C258.699 111.331 258.713 111.345 258.713 111.365V117.938C258.713 117.957 258.699 117.971 258.679 117.971H229.25C229.25 117.971 229.25 117.966 229.253 117.963C229.287 117.795 229.304 117.618 229.304 117.438ZM198.669 123.386C198.949 123.344 199.14 123.313 199.261 123.293C199.261 123.293 199.263 123.293 199.266 123.293H213.021V123.302H289.508C289.508 123.302 289.51 123.302 289.513 123.302C289.642 123.324 289.839 123.355 290.116 123.394C291.612 123.607 293.27 124.979 293.592 127.142C293.592 127.142 293.592 127.145 293.592 127.148V144.889C293.592 144.903 293.581 144.917 293.567 144.923C282.124 147.899 270.307 150.012 258.396 151.218C258.376 151.218 258.359 151.204 258.359 151.185V149.454C258.359 147.964 257.15 146.755 255.66 146.755H233.228C233.116 146.755 233.063 146.758 232.942 146.755C232.839 146.758 232.673 146.755 232.558 146.755C231.085 146.755 229.893 147.95 229.893 149.42V151.387C229.8 151.378 229.705 151.367 229.609 151.356C218.141 150.082 206.636 147.911 195.353 144.895C195.339 144.892 195.327 144.878 195.327 144.861V127.156C195.327 127.156 195.327 127.153 195.327 127.151C195.628 124.971 197.23 123.591 198.669 123.383V123.386ZM232.3 151.639L232.272 151.908C232.05 151.824 231.843 151.709 231.655 151.572C231.871 151.597 232.084 151.617 232.3 151.639ZM235.257 152.085H252.995C253.015 152.085 253.029 152.099 253.029 152.119V164.056C253.029 164.075 253.015 164.089 252.995 164.089H235.257C235.237 164.089 235.223 164.075 235.223 164.056V152.119C235.223 152.099 235.237 152.085 235.257 152.085ZM290.251 192.547C289.982 192.587 289.791 192.618 289.662 192.64C289.662 192.64 289.659 192.64 289.656 192.64H275.901V192.632H199.432C199.432 192.632 199.429 192.632 199.426 192.632C199.294 192.609 199.095 192.578 198.806 192.539C197.305 192.326 195.642 190.943 195.327 188.766C195.327 188.766 195.327 188.763 195.327 188.76V150.444C195.327 150.421 195.347 150.407 195.37 150.41C206.465 153.303 217.759 155.398 229.02 156.652C229.301 156.683 229.584 156.714 229.862 156.745C229.879 156.745 229.893 156.762 229.893 156.778V166.435C229.893 166.488 229.893 166.541 229.898 166.595C229.896 166.645 229.893 166.698 229.893 166.752C229.893 168.225 231.085 169.417 232.558 169.417H255.694C257.164 169.417 258.359 168.225 258.359 166.752C258.359 166.449 258.309 166.16 258.213 165.888C258.213 165.882 258.213 165.874 258.213 165.868C258.309 165.599 258.359 165.307 258.359 165.004V156.599C258.359 156.582 258.373 156.568 258.39 156.565C270.282 155.393 282.096 153.331 293.55 150.424C293.573 150.419 293.592 150.435 293.592 150.458V188.794C293.592 188.794 293.592 188.797 293.592 188.799C293.284 190.965 291.687 192.337 290.251 192.545V192.547ZM258.365 165.125L258.337 166.707L258.365 165.125Z" fill="#1D1D1B"/>
<path d="M258.365 165.125L258.337 166.707M290.128 118.019L264.079 117.971C264.06 117.971 264.046 117.957 264.046 117.938V108.817C264.046 107.605 263.297 106.478 262.138 106.119C261.79 106.009 261.442 105.975 261.095 106.018C260.999 106.006 260.904 106.001 260.808 106.001H227.618C227.455 106.001 227.292 106.015 227.138 106.046C227.135 106.046 227.132 106.046 227.127 106.046C226.97 106.015 226.807 106.001 226.641 106.001C225.171 106.001 223.976 107.193 223.976 108.666V117.438C223.976 117.604 223.99 117.767 224.018 117.924C224.021 117.943 224.007 117.963 223.987 117.963H198.758L198.436 118.027C198.402 118.033 198.256 118.058 197.911 118.109C193.796 118.706 190.558 122.233 190.028 126.604C190.017 126.685 190.006 126.766 190 126.848V189.027C190 189.027 190 189.027 190 189.029C190.008 189.153 190.022 189.276 190.042 189.394C190.606 193.734 193.894 197.224 198.063 197.813C198.388 197.861 198.542 197.886 198.596 197.892C198.604 197.892 198.61 197.892 198.618 197.886L198.913 197.69L198.837 197.903L215.097 197.959V197.967H290.17L290.492 197.903C290.532 197.894 290.68 197.869 291.017 197.819C295.113 197.227 298.336 193.734 298.892 189.394C298.906 189.302 298.917 189.209 298.925 189.116V126.87C298.92 126.78 298.909 126.688 298.897 126.601C298.356 122.227 295.057 118.706 290.865 118.114C290.512 118.064 290.36 118.039 290.321 118.03L290.128 118.016V118.019ZM229.304 117.438V111.365C229.304 111.345 229.318 111.331 229.337 111.331H258.679C258.699 111.331 258.713 111.345 258.713 111.365V117.938C258.713 117.957 258.699 117.971 258.679 117.971H229.25C229.25 117.971 229.25 117.966 229.253 117.963C229.287 117.795 229.304 117.618 229.304 117.438ZM198.669 123.386C198.949 123.344 199.14 123.313 199.261 123.293C199.261 123.293 199.263 123.293 199.266 123.293H213.021V123.302H289.508C289.508 123.302 289.51 123.302 289.513 123.302C289.642 123.324 289.839 123.355 290.116 123.394C291.612 123.607 293.27 124.979 293.592 127.142C293.592 127.142 293.592 127.145 293.592 127.148V144.889C293.592 144.903 293.581 144.917 293.567 144.923C282.124 147.899 270.307 150.012 258.396 151.218C258.376 151.218 258.359 151.204 258.359 151.185V149.454C258.359 147.964 257.15 146.755 255.66 146.755H233.228C233.116 146.755 233.063 146.758 232.942 146.755C232.838 146.758 232.673 146.755 232.558 146.755C231.085 146.755 229.893 147.95 229.893 149.42V151.387C229.8 151.378 229.705 151.367 229.609 151.356C218.141 150.082 206.636 147.911 195.353 144.895C195.339 144.892 195.327 144.878 195.327 144.861V127.156C195.327 127.156 195.327 127.153 195.327 127.151C195.628 124.971 197.23 123.591 198.669 123.383V123.386ZM232.3 151.639L232.272 151.908C232.05 151.824 231.843 151.709 231.655 151.572C231.871 151.597 232.084 151.617 232.3 151.639ZM235.257 152.085H252.995C253.015 152.085 253.029 152.099 253.029 152.119V164.056C253.029 164.075 253.015 164.089 252.995 164.089H235.257C235.237 164.089 235.223 164.075 235.223 164.056V152.119C235.223 152.099 235.237 152.085 235.257 152.085ZM290.251 192.547C289.982 192.587 289.791 192.618 289.662 192.64C289.662 192.64 289.659 192.64 289.656 192.64H275.901V192.632H199.432C199.432 192.632 199.429 192.632 199.426 192.632C199.294 192.609 199.095 192.578 198.806 192.539C197.305 192.326 195.642 190.943 195.327 188.766C195.327 188.766 195.327 188.763 195.327 188.76V150.444C195.327 150.421 195.347 150.407 195.37 150.41C206.465 153.303 217.759 155.398 229.02 156.652C229.301 156.683 229.584 156.714 229.862 156.745C229.879 156.745 229.893 156.762 229.893 156.778V166.435C229.893 166.488 229.893 166.541 229.898 166.595C229.896 166.645 229.893 166.698 229.893 166.752C229.893 168.225 231.085 169.417 232.558 169.417H255.694C257.164 169.417 258.359 168.225 258.359 166.752C258.359 166.449 258.309 166.16 258.213 165.888C258.213 165.882 258.213 165.874 258.213 165.868C258.309 165.599 258.359 165.307 258.359 165.004V156.599C258.359 156.582 258.373 156.568 258.39 156.565C270.282 155.393 282.096 153.331 293.55 150.424C293.573 150.419 293.592 150.435 293.592 150.458V188.794C293.592 188.794 293.592 188.797 293.592 188.799C293.284 190.965 291.687 192.337 290.251 192.545V192.547Z" stroke="#1D1D1B" stroke-miterlimit="10"/>
</g>
<defs>
<filter id="filter0_d_170_78" x="0" y="0" width="1448" height="636" filterUnits="userSpaceOnUse" color-interpolation-filters="sRGB">
<feFlood flood-opacity="0" result="BackgroundImageFix"/>
<feColorMatrix in="SourceAlpha" type="matrix" values="0 0 0 0 0 0 0 0 0 0 0 0 0 0 0 0 0 0 127 0" result="hardAlpha"/>
<feOffset dy="4"/>
<feGaussianBlur stdDeviation="2"/>
<feComposite in2="hardAlpha" operator="out"/>
<feColorMatrix type="matrix" values="0 0 0 0 0 0 0 0 0 0 0 0 0 0 0 0 0 0 0.25 0"/>
<feBlend mode="normal" in2="BackgroundImageFix" result="effect1_dropShadow_170_78"/>
<feBlend mode="normal" in="SourceGraphic" in2="effect1_dropShadow_170_78" result="shape"/>
</filter>
<clipPath id="clip0_170_78">
<rect width="1440" height="628" fill="white" transform="translate(4)"/>
</clipPath>
<clipPath id="clip1_170_78">
<rect width="167" height="167" fill="white" transform="translate(132 31)"/>
</clipPath>
</defs>
</svg>
