<svg width="1913" height="1126" viewBox="0 0 1913 1126" fill="none" xmlns="http://www.w3.org/2000/svg">
<g clip-path="url(#clip0_203_78)" filter="url(#filter0_d_203_78)">
<rect width="1905" height="1118" transform="translate(4)" fill="white"/>
<rect x="4.44141" y="-421" width="565.248" height="547" rx="263.336" transform="rotate(48.1476 4.44141 -421)" fill="#C58B8B" fill-opacity="0.3"/>
<path d="M1908.84 -185L1924.31 300.035C1711.81 295.182 1642.25 148.479 1634.03 75.734C1642.74 -124.57 1820.87 -181.549 1908.84 -185Z" fill="#F4E7E7" fill-opacity="0.5"/>
<rect x="1909.3" y="729" width="573.749" height="526.672" rx="263.336" transform="rotate(48.1476 1909.3 729)" fill="#C58B8B" fill-opacity="0.3"/>
<path d="M-7.78595 1406.79L-11 830.604C204.718 843.202 271.594 1019.56 278.067 1106.17C264.057 1343.63 81.6607 1405.52 -7.78595 1406.79Z" fill="#F4E7E7" fill-opacity="0.5"/>
</g>
<defs>
<filter id="filter0_d_203_78" x="0" y="0" width="1913" height="1126" filterUnits="userSpaceOnUse" color-interpolation-filters="sRGB">
<feFlood flood-opacity="0" result="BackgroundImageFix"/>
<feColorMatrix in="SourceAlpha" type="matrix" values="0 0 0 0 0 0 0 0 0 0 0 0 0 0 0 0 0 0 127 0" result="hardAlpha"/>
<feOffset dy="4"/>
<feGaussianBlur stdDeviation="2"/>
<feComposite in2="hardAlpha" operator="out"/>
<feColorMatrix type="matrix" values="0 0 0 0 0 0 0 0 0 0 0 0 0 0 0 0 0 0 0.25 0"/>
<feBlend mode="normal" in2="BackgroundImageFix" result="effect1_dropShadow_203_78"/>
<feBlend mode="normal" in="SourceGraphic" in2="effect1_dropShadow_203_78" result="shape"/>
</filter>
<clipPath id="clip0_203_78">
<rect width="1905" height="1118" fill="white" transform="translate(4)"/>
</clipPath>
</defs>
</svg>
