<svg width="1007" height="636" viewBox="0 0 1007 636" fill="none" xmlns="http://www.w3.org/2000/svg">
<g clip-path="url(#clip0_155_120)" filter="url(#filter0_d_155_120)">
<rect width="999" height="628" transform="translate(4)" fill="white"/>
<rect x="-44.5586" y="-499" width="565.248" height="547" rx="263.336" transform="rotate(48.1476 -44.5586 -499)" fill="#C58B8B" fill-opacity="0.3"/>
<path d="M1053.46 -157L1064.2 179.901C916.601 176.53 868.284 74.6315 862.575 24.1035C868.627 -115.026 992.352 -154.603 1053.46 -157Z" fill="#F4E7E7" fill-opacity="0.5"/>
<rect x="1080.3" y="314" width="573.749" height="526.672" rx="263.336" transform="rotate(48.1476 1080.3 314)" fill="#C58B8B" fill-opacity="0.3"/>
<path d="M5.96777 775.746L4 422.982C136.071 430.695 177.016 538.67 180.979 591.693C172.401 737.075 60.7307 774.971 5.96777 775.746Z" fill="#F4E7E7" fill-opacity="0.5"/>
<path d="M230.747 169.852L211.562 169.817C211.547 169.817 211.537 169.807 211.537 169.792V163.075C211.537 162.182 210.985 161.352 210.132 161.087C209.875 161.007 209.619 160.982 209.363 161.013C209.293 161.005 209.223 161.001 209.152 161.001H184.706C184.587 161.001 184.467 161.011 184.353 161.034C184.351 161.034 184.349 161.034 184.345 161.034C184.229 161.011 184.109 161.001 183.987 161.001C182.905 161.001 182.024 161.879 182.024 162.963V169.425C182.024 169.547 182.035 169.666 182.055 169.782C182.057 169.797 182.047 169.811 182.033 169.811H163.451L163.213 169.859C163.188 169.863 163.081 169.881 162.827 169.918C159.796 170.359 157.411 172.956 157.021 176.175C157.012 176.235 157.004 176.295 157 176.355V222.151C157 222.151 157 222.151 157 222.153C157.006 222.244 157.017 222.335 157.031 222.422C157.446 225.618 159.868 228.189 162.938 228.623C163.178 228.658 163.292 228.677 163.331 228.681C163.337 228.681 163.341 228.681 163.348 228.677L163.564 228.532L163.509 228.689L175.485 228.73V228.736H230.778L231.015 228.689C231.044 228.683 231.154 228.664 231.402 228.627C234.418 228.191 236.793 225.618 237.202 222.422C237.212 222.354 237.22 222.286 237.226 222.217V176.371C237.222 176.305 237.214 176.237 237.206 176.173C236.807 172.952 234.377 170.359 231.29 169.923C231.03 169.885 230.918 169.867 230.889 169.861L230.747 169.85V169.852ZM185.948 169.425V164.951C185.948 164.937 185.959 164.926 185.973 164.926H207.584C207.598 164.926 207.609 164.937 207.609 164.951V169.792C207.609 169.807 207.598 169.817 207.584 169.817H185.909C185.909 169.817 185.909 169.813 185.911 169.811C185.936 169.687 185.948 169.557 185.948 169.425ZM163.385 173.805C163.591 173.774 163.732 173.751 163.821 173.737C163.821 173.737 163.823 173.737 163.825 173.737H173.956V173.743H230.29C230.29 173.743 230.292 173.743 230.294 173.743C230.389 173.76 230.534 173.782 230.738 173.811C231.84 173.968 233.061 174.979 233.299 176.572C233.299 176.572 233.299 176.574 233.299 176.576V189.643C233.299 189.653 233.29 189.664 233.28 189.668C224.852 191.86 216.149 193.416 207.375 194.304C207.361 194.304 207.348 194.294 207.348 194.28V193.005C207.348 191.908 206.458 191.017 205.361 191.017H188.839C188.756 191.017 188.717 191.019 188.628 191.017C188.552 191.019 188.43 191.017 188.345 191.017C187.26 191.017 186.382 191.897 186.382 192.98V194.428C186.314 194.422 186.244 194.414 186.173 194.406C177.727 193.468 169.253 191.868 160.942 189.647C160.932 189.645 160.924 189.635 160.924 189.622V176.582C160.924 176.582 160.924 176.58 160.924 176.578C161.145 174.973 162.325 173.956 163.385 173.803V173.805ZM188.155 194.614L188.134 194.813C187.971 194.751 187.818 194.666 187.68 194.565C187.839 194.583 187.996 194.598 188.155 194.614ZM190.333 194.943H203.398C203.412 194.943 203.423 194.953 203.423 194.968V203.76C203.423 203.774 203.412 203.784 203.398 203.784H190.333C190.318 203.784 190.308 203.774 190.308 203.76V194.968C190.308 194.953 190.318 194.943 190.333 194.943ZM230.838 224.744C230.639 224.773 230.499 224.796 230.404 224.813C230.404 224.813 230.402 224.813 230.4 224.813H220.269V224.806H163.947C163.947 224.806 163.945 224.806 163.943 224.806C163.846 224.79 163.699 224.767 163.486 224.738C162.381 224.581 161.155 223.563 160.924 221.959C160.924 221.959 160.924 221.957 160.924 221.955V193.734C160.924 193.718 160.938 193.707 160.955 193.709C169.127 195.84 177.446 197.383 185.74 198.307C185.946 198.329 186.155 198.352 186.359 198.375C186.372 198.375 186.382 198.387 186.382 198.4V205.512C186.382 205.551 186.382 205.59 186.386 205.63C186.384 205.667 186.382 205.706 186.382 205.745C186.382 206.83 187.26 207.708 188.345 207.708H205.385C206.468 207.708 207.348 206.83 207.348 205.745C207.348 205.522 207.311 205.309 207.241 205.109C207.241 205.105 207.241 205.099 207.241 205.094C207.311 204.896 207.348 204.681 207.348 204.458V198.267C207.348 198.255 207.359 198.245 207.371 198.243C216.13 197.379 224.831 195.86 233.268 193.72C233.284 193.716 233.299 193.728 233.299 193.744V221.98C233.299 221.98 233.299 221.982 233.299 221.984C233.071 223.579 231.896 224.589 230.838 224.742V224.744ZM207.353 204.547L207.332 205.712L207.353 204.547Z" fill="#1D1D1B"/>
<path d="M207.353 204.547L207.332 205.712M230.747 169.852L211.562 169.817C211.547 169.817 211.537 169.807 211.537 169.792V163.075C211.537 162.182 210.985 161.352 210.132 161.087C209.875 161.007 209.619 160.982 209.363 161.013C209.293 161.005 209.223 161.001 209.152 161.001H184.706C184.587 161.001 184.467 161.011 184.353 161.034C184.351 161.034 184.349 161.034 184.345 161.034C184.229 161.011 184.109 161.001 183.987 161.001C182.905 161.001 182.024 161.879 182.024 162.963V169.425C182.024 169.547 182.035 169.666 182.055 169.782C182.057 169.797 182.047 169.811 182.033 169.811H163.451L163.213 169.859C163.188 169.863 163.081 169.881 162.827 169.918C159.796 170.359 157.411 172.956 157.021 176.175C157.012 176.235 157.004 176.295 157 176.355V222.151C157 222.151 157 222.151 157 222.153C157.006 222.244 157.017 222.335 157.031 222.422C157.446 225.618 159.868 228.189 162.938 228.623C163.178 228.658 163.292 228.677 163.331 228.681C163.337 228.681 163.341 228.681 163.348 228.677L163.564 228.532L163.509 228.689L175.485 228.73V228.736H230.778L231.015 228.689C231.044 228.683 231.154 228.664 231.402 228.627C234.418 228.191 236.793 225.618 237.202 222.422C237.212 222.354 237.22 222.286 237.226 222.217V176.371C237.222 176.305 237.214 176.237 237.206 176.173C236.807 172.952 234.377 170.359 231.29 169.923C231.03 169.885 230.918 169.867 230.889 169.861L230.747 169.85V169.852ZM185.948 169.425V164.951C185.948 164.937 185.959 164.926 185.973 164.926H207.584C207.598 164.926 207.609 164.937 207.609 164.951V169.792C207.609 169.807 207.598 169.817 207.584 169.817H185.909C185.909 169.817 185.909 169.813 185.911 169.811C185.936 169.687 185.948 169.557 185.948 169.425ZM163.385 173.805C163.591 173.774 163.732 173.751 163.821 173.737C163.821 173.737 163.823 173.737 163.825 173.737H173.956V173.743H230.29C230.29 173.743 230.292 173.743 230.294 173.743C230.389 173.76 230.534 173.782 230.738 173.811C231.84 173.968 233.061 174.979 233.299 176.572C233.299 176.572 233.299 176.574 233.299 176.576V189.643C233.299 189.653 233.29 189.664 233.28 189.668C224.852 191.86 216.149 193.416 207.375 194.304C207.361 194.304 207.348 194.294 207.348 194.28V193.005C207.348 191.908 206.458 191.017 205.361 191.017H188.839C188.756 191.017 188.717 191.019 188.628 191.017C188.552 191.019 188.43 191.017 188.345 191.017C187.26 191.017 186.382 191.897 186.382 192.98V194.428C186.314 194.422 186.244 194.414 186.173 194.406C177.727 193.468 169.253 191.868 160.942 189.647C160.932 189.645 160.924 189.635 160.924 189.622V176.582C160.924 176.582 160.924 176.58 160.924 176.578C161.145 174.973 162.325 173.956 163.385 173.803V173.805ZM188.155 194.614L188.134 194.813C187.971 194.751 187.818 194.666 187.68 194.565C187.839 194.583 187.996 194.598 188.155 194.614ZM190.333 194.943H203.398C203.412 194.943 203.423 194.953 203.423 194.968V203.76C203.423 203.774 203.412 203.784 203.398 203.784H190.333C190.318 203.784 190.308 203.774 190.308 203.76V194.968C190.308 194.953 190.318 194.943 190.333 194.943ZM230.838 224.744C230.639 224.773 230.499 224.796 230.404 224.813C230.404 224.813 230.402 224.813 230.4 224.813H220.269V224.806H163.947C163.947 224.806 163.945 224.806 163.943 224.806C163.846 224.79 163.699 224.767 163.486 224.738C162.381 224.581 161.155 223.563 160.924 221.959C160.924 221.959 160.924 221.957 160.924 221.955V193.734C160.924 193.718 160.938 193.707 160.955 193.709C169.127 195.84 177.446 197.383 185.74 198.307C185.946 198.329 186.155 198.352 186.359 198.375C186.372 198.375 186.382 198.387 186.382 198.4V205.512C186.382 205.551 186.382 205.59 186.386 205.63C186.384 205.667 186.382 205.706 186.382 205.745C186.382 206.83 187.26 207.708 188.345 207.708H205.385C206.468 207.708 207.348 206.83 207.348 205.745C207.348 205.522 207.311 205.309 207.241 205.109C207.241 205.105 207.241 205.099 207.241 205.094C207.311 204.896 207.348 204.681 207.348 204.458V198.267C207.348 198.255 207.359 198.245 207.371 198.243C216.13 197.379 224.831 195.86 233.268 193.72C233.284 193.716 233.299 193.728 233.299 193.744V221.98C233.299 221.98 233.299 221.982 233.299 221.984C233.071 223.579 231.896 224.589 230.838 224.742V224.744Z" stroke="#1D1D1B" stroke-miterlimit="10"/>
</g>
<defs>
<filter id="filter0_d_155_120" x="0" y="0" width="1007" height="636" filterUnits="userSpaceOnUse" color-interpolation-filters="sRGB">
<feFlood flood-opacity="0" result="BackgroundImageFix"/>
<feColorMatrix in="SourceAlpha" type="matrix" values="0 0 0 0 0 0 0 0 0 0 0 0 0 0 0 0 0 0 127 0" result="hardAlpha"/>
<feOffset dy="4"/>
<feGaussianBlur stdDeviation="2"/>
<feComposite in2="hardAlpha" operator="out"/>
<feColorMatrix type="matrix" values="0 0 0 0 0 0 0 0 0 0 0 0 0 0 0 0 0 0 0.25 0"/>
<feBlend mode="normal" in2="BackgroundImageFix" result="effect1_dropShadow_155_120"/>
<feBlend mode="normal" in="SourceGraphic" in2="effect1_dropShadow_155_120" result="shape"/>
</filter>
<clipPath id="clip0_155_120">
<rect width="999" height="628" fill="white" transform="translate(4)"/>
</clipPath>
</defs>
</svg>
