<svg width="1913" height="1126" viewBox="0 0 1913 1126" fill="none" xmlns="http://www.w3.org/2000/svg">
<g clip-path="url(#clip0_203_78)" filter="url(#filter0_d_203_78)">
<rect width="1905" height="1118" transform="translate(4)" fill="white"/>
<g clip-path="url(#clip1_203_78)">
<g clip-path="url(#clip2_203_78)">
<g clip-path="url(#clip3_203_78)">
<path d="M410.824 264.226L372.142 264.155C372.113 264.155 372.092 264.134 372.092 264.105V250.561C372.092 248.761 370.98 247.086 369.259 246.553C368.743 246.391 368.226 246.341 367.709 246.403C367.568 246.387 367.426 246.378 367.284 246.378H317.995C317.754 246.378 317.512 246.399 317.283 246.445C317.279 246.445 317.274 246.445 317.266 246.445C317.033 246.399 316.791 246.378 316.545 246.378C314.362 246.378 312.588 248.149 312.588 250.336V263.363C312.588 263.609 312.608 263.851 312.65 264.084C312.654 264.113 312.633 264.143 312.604 264.143H275.138L274.659 264.238C274.609 264.247 274.393 264.284 273.88 264.359C267.769 265.247 262.961 270.483 262.173 276.974C262.157 277.095 262.14 277.216 262.132 277.337V369.674C262.132 369.674 262.132 369.674 262.132 369.678C262.144 369.862 262.165 370.045 262.194 370.22C263.032 376.665 267.914 381.848 274.105 382.722C274.588 382.793 274.818 382.831 274.897 382.839C274.909 382.839 274.918 382.839 274.93 382.831L275.368 382.539L275.255 382.856L299.402 382.939V382.952H410.887L411.366 382.856C411.424 382.843 411.645 382.806 412.145 382.731C418.228 381.852 423.014 376.665 423.839 370.22C423.86 370.082 423.877 369.945 423.889 369.807V277.37C423.881 277.237 423.864 277.099 423.848 276.97C423.044 270.475 418.144 265.247 411.92 264.367C411.395 264.292 411.17 264.255 411.112 264.243L410.824 264.222V264.226ZM320.499 263.363V254.344C320.499 254.315 320.52 254.294 320.549 254.294H364.122C364.151 254.294 364.172 254.315 364.172 254.344V264.105C364.172 264.134 364.151 264.155 364.122 264.155H320.42C320.42 264.155 320.42 264.147 320.424 264.143C320.474 263.893 320.499 263.63 320.499 263.363ZM275.005 272.196C275.422 272.133 275.705 272.087 275.884 272.058C275.884 272.058 275.888 272.058 275.892 272.058H296.319V272.071H409.904C409.904 272.071 409.908 272.071 409.912 272.071C410.104 272.104 410.395 272.15 410.808 272.208C413.028 272.525 415.49 274.562 415.969 277.774C415.969 277.774 415.969 277.778 415.969 277.782V304.129C415.969 304.15 415.953 304.17 415.932 304.179C398.938 308.599 381.391 311.736 363.702 313.528C363.672 313.528 363.647 313.507 363.647 313.478V310.907C363.647 308.695 361.852 306.899 359.64 306.899H326.327C326.161 306.899 326.082 306.903 325.902 306.899C325.748 306.903 325.502 306.899 325.332 306.899C323.144 306.899 321.374 308.674 321.374 310.857V313.778C321.236 313.765 321.095 313.748 320.953 313.732C303.922 311.84 286.837 308.616 270.081 304.137C270.06 304.133 270.043 304.112 270.043 304.087V277.795C270.043 277.795 270.043 277.791 270.043 277.787C270.489 274.549 272.868 272.5 275.005 272.191V272.196ZM324.948 314.152L324.907 314.552C324.578 314.427 324.269 314.257 323.99 314.052C324.311 314.09 324.628 314.119 324.948 314.152ZM329.339 314.815H355.682C355.711 314.815 355.732 314.836 355.732 314.865V332.592C355.732 332.621 355.711 332.642 355.682 332.642H329.339C329.31 332.642 329.289 332.621 329.289 332.592V314.865C329.289 314.836 329.31 314.815 329.339 314.815ZM411.008 374.903C410.608 374.961 410.324 375.007 410.133 375.04C410.133 375.04 410.129 375.04 410.124 375.04H389.698V375.028H276.138C276.138 375.028 276.134 375.028 276.13 375.028C275.934 374.994 275.638 374.948 275.209 374.89C272.98 374.574 270.51 372.52 270.043 369.287C270.043 369.287 270.043 369.283 270.043 369.278V312.378C270.043 312.344 270.072 312.324 270.106 312.328C286.583 316.623 303.355 319.735 320.078 321.597C320.495 321.643 320.916 321.689 321.328 321.735C321.353 321.735 321.374 321.76 321.374 321.785V336.125C321.374 336.204 321.374 336.283 321.382 336.362C321.378 336.437 321.374 336.516 321.374 336.595C321.374 338.782 323.144 340.553 325.332 340.553H359.69C361.873 340.553 363.647 338.782 363.647 336.595C363.647 336.145 363.572 335.716 363.431 335.312C363.431 335.304 363.431 335.291 363.431 335.283C363.572 334.883 363.647 334.45 363.647 334V321.518C363.647 321.493 363.668 321.472 363.693 321.468C381.353 319.727 398.897 316.665 415.907 312.349C415.94 312.34 415.969 312.365 415.969 312.399V369.328C415.969 369.328 415.969 369.333 415.969 369.337C415.511 372.553 413.141 374.59 411.008 374.898V374.903ZM363.656 334.179L363.614 336.529Z" fill="#1D1D1B"/>
<path d="M363.656 334.179L363.614 336.529M410.824 264.226L372.142 264.155C372.113 264.155 372.092 264.134 372.092 264.105V250.561C372.092 248.761 370.98 247.086 369.259 246.553C368.743 246.391 368.226 246.341 367.709 246.403C367.568 246.387 367.426 246.378 367.284 246.378H317.995C317.754 246.378 317.512 246.399 317.283 246.445C317.279 246.445 317.274 246.445 317.266 246.445C317.033 246.399 316.791 246.378 316.545 246.378C314.362 246.378 312.588 248.149 312.588 250.336V263.363C312.588 263.609 312.608 263.851 312.65 264.084C312.654 264.113 312.633 264.143 312.604 264.143H275.138L274.659 264.238C274.609 264.247 274.393 264.284 273.88 264.359C267.769 265.247 262.961 270.483 262.173 276.974C262.157 277.095 262.14 277.216 262.132 277.337V369.674C262.132 369.674 262.132 369.674 262.132 369.678C262.144 369.862 262.165 370.045 262.194 370.22C263.032 376.665 267.914 381.848 274.105 382.722C274.588 382.793 274.818 382.831 274.897 382.839C274.909 382.839 274.918 382.839 274.93 382.831L275.368 382.539L275.255 382.856L299.402 382.939V382.952H410.887L411.366 382.856C411.424 382.843 411.645 382.806 412.145 382.731C418.228 381.852 423.014 376.665 423.839 370.22C423.86 370.082 423.877 369.945 423.889 369.807V277.37C423.881 277.237 423.864 277.099 423.848 276.97C423.044 270.475 418.144 265.247 411.92 264.367C411.395 264.292 411.17 264.255 411.112 264.243L410.824 264.222V264.226ZM320.499 263.363V254.344C320.499 254.315 320.52 254.294 320.549 254.294H364.122C364.151 254.294 364.172 254.315 364.172 254.344V264.105C364.172 264.134 364.151 264.155 364.122 264.155H320.42C320.42 264.155 320.42 264.147 320.424 264.143C320.474 263.893 320.499 263.63 320.499 263.363ZM275.005 272.196C275.422 272.133 275.705 272.087 275.884 272.058C275.884 272.058 275.888 272.058 275.892 272.058H296.319V272.071H409.904C409.904 272.071 409.908 272.071 409.912 272.071C410.104 272.104 410.395 272.15 410.808 272.208C413.028 272.525 415.49 274.562 415.969 277.774C415.969 277.774 415.969 277.778 415.969 277.782V304.129C415.969 304.15 415.953 304.17 415.932 304.179C398.938 308.599 381.391 311.736 363.702 313.528C363.672 313.528 363.647 313.507 363.647 313.478V310.907C363.647 308.695 361.852 306.899 359.64 306.899H326.327C326.161 306.899 326.082 306.903 325.902 306.899C325.748 306.903 325.502 306.899 325.332 306.899C323.144 306.899 321.374 308.674 321.374 310.857V313.778C321.236 313.765 321.095 313.748 320.953 313.732C303.922 311.84 286.837 308.616 270.081 304.137C270.06 304.133 270.043 304.112 270.043 304.087V277.795C270.043 277.795 270.043 277.791 270.043 277.787C270.489 274.549 272.868 272.5 275.005 272.191V272.196ZM324.948 314.152L324.907 314.552C324.578 314.427 324.269 314.257 323.99 314.052C324.311 314.09 324.628 314.119 324.948 314.152ZM329.339 314.815H355.682C355.711 314.815 355.732 314.836 355.732 314.865V332.592C355.732 332.621 355.711 332.642 355.682 332.642H329.339C329.31 332.642 329.289 332.621 329.289 332.592V314.865C329.289 314.836 329.31 314.815 329.339 314.815ZM411.008 374.903C410.608 374.961 410.324 375.007 410.133 375.04C410.133 375.04 410.129 375.04 410.124 375.04H389.698V375.028H276.138C276.138 375.028 276.134 375.028 276.13 375.028C275.934 374.994 275.638 374.948 275.209 374.89C272.98 374.574 270.51 372.52 270.043 369.287C270.043 369.287 270.043 369.283 270.043 369.278V312.378C270.043 312.344 270.072 312.324 270.106 312.328C286.583 316.623 303.355 319.735 320.078 321.597C320.495 321.643 320.916 321.689 321.328 321.735C321.353 321.735 321.374 321.76 321.374 321.785V336.125C321.374 336.204 321.374 336.283 321.382 336.362C321.378 336.437 321.374 336.516 321.374 336.595C321.374 338.782 323.144 340.553 325.332 340.553H359.69C361.873 340.553 363.647 338.782 363.647 336.595C363.647 336.145 363.572 335.716 363.431 335.312C363.431 335.304 363.431 335.291 363.431 335.283C363.572 334.883 363.647 334.45 363.647 334V321.518C363.647 321.493 363.668 321.472 363.693 321.468C381.353 319.727 398.897 316.665 415.907 312.349C415.94 312.34 415.969 312.365 415.969 312.399V369.328C415.969 369.328 415.969 369.333 415.969 369.337C415.511 372.553 413.141 374.59 411.008 374.898V374.903Z" stroke="#1D1D1B" stroke-miterlimit="10"/>
</g>
<path d="M230.698 302.046C230.632 301.859 230.582 301.672 230.555 301.484C230.588 301.672 230.632 301.864 230.698 302.046Z" fill="#1D1D1B"/>
<path d="M230.791 302.311C230.764 302.245 230.742 302.178 230.714 302.107C230.709 302.085 230.698 302.068 230.698 302.046C230.725 302.134 230.758 302.223 230.791 302.311Z" fill="#1D1D1B"/>
</g>
<path d="M234.864 299.683C234.799 299.498 234.75 299.314 234.723 299.129C234.756 299.314 234.799 299.504 234.864 299.683Z" fill="#1D1D1B"/>
<path d="M234.957 299.943C234.929 299.878 234.908 299.813 234.881 299.742C234.875 299.721 234.864 299.704 234.864 299.683C234.891 299.77 234.924 299.856 234.957 299.943Z" fill="#1D1D1B"/>
</g>
<rect x="4.44141" y="-421" width="565.248" height="547" rx="263.336" transform="rotate(48.1476 4.44141 -421)" fill="#C58B8B" fill-opacity="0.3"/>
<path d="M1908.84 -185L1924.31 300.035C1711.81 295.182 1642.25 148.479 1634.03 75.734C1642.74 -124.57 1820.87 -181.549 1908.84 -185Z" fill="#F4E7E7" fill-opacity="0.5"/>
<rect x="1909.3" y="729" width="573.749" height="526.672" rx="263.336" transform="rotate(48.1476 1909.3 729)" fill="#C58B8B" fill-opacity="0.3"/>
<path d="M-7.78595 1406.79L-11 830.604C204.718 843.202 271.594 1019.56 278.067 1106.17C264.057 1343.63 81.6607 1405.52 -7.78595 1406.79Z" fill="#F4E7E7" fill-opacity="0.5"/>
</g>
<defs>
<filter id="filter0_d_203_78" x="0" y="0" width="1913" height="1126" filterUnits="userSpaceOnUse" color-interpolation-filters="sRGB">
<feFlood flood-opacity="0" result="BackgroundImageFix"/>
<feColorMatrix in="SourceAlpha" type="matrix" values="0 0 0 0 0 0 0 0 0 0 0 0 0 0 0 0 0 0 127 0" result="hardAlpha"/>
<feOffset dy="4"/>
<feGaussianBlur stdDeviation="2"/>
<feComposite in2="hardAlpha" operator="out"/>
<feColorMatrix type="matrix" values="0 0 0 0 0 0 0 0 0 0 0 0 0 0 0 0 0 0 0.25 0"/>
<feBlend mode="normal" in2="BackgroundImageFix" result="effect1_dropShadow_203_78"/>
<feBlend mode="normal" in="SourceGraphic" in2="effect1_dropShadow_203_78" result="shape"/>
</filter>
<clipPath id="clip0_203_78">
<rect width="1905" height="1118" fill="white" transform="translate(4)"/>
</clipPath>
<clipPath id="clip1_203_78">
<rect width="323" height="323" fill="white" transform="translate(181 147)"/>
</clipPath>
<clipPath id="clip2_203_78">
<rect width="328" height="328" fill="white" transform="translate(176 147)"/>
</clipPath>
<clipPath id="clip3_203_78">
<rect width="248" height="248" fill="white" transform="translate(176 135)"/>
</clipPath>
</defs>
</svg>
