<svg width="1448" height="636" viewBox="0 0 1448 636" fill="none" xmlns="http://www.w3.org/2000/svg">
<g clip-path="url(#clip0_170_109)" filter="url(#filter0_d_170_109)">
<rect width="1440" height="628" transform="translate(4)" fill="white"/>
<path d="M168.689 121.503C168.641 121.367 168.605 121.231 168.585 121.095C168.609 121.231 168.641 121.371 168.689 121.503Z" fill="#1D1D1B"/>
<path d="M168.757 121.695C168.737 121.647 168.721 121.599 168.701 121.547C168.697 121.531 168.689 121.519 168.689 121.503C168.709 121.567 168.733 121.631 168.757 121.695Z" fill="#1D1D1B"/>
<path d="M329.203 118.505C329.143 118.441 329.079 118.381 329.015 118.325C329.063 118.365 329.111 118.409 329.155 118.453C329.171 118.469 329.187 118.489 329.203 118.505Z" fill="#1D1D1B"/>
<path d="M329.826 120.927C329.81 120.999 329.786 121.071 329.762 121.143C329.746 121.195 329.726 121.243 329.702 121.295C329.754 121.175 329.794 121.051 329.826 120.927Z" fill="#1D1D1B"/>
<path d="M329.894 120.032C329.894 119.98 329.886 119.932 329.878 119.884C329.87 119.824 329.858 119.76 329.842 119.7C329.834 119.652 329.818 119.604 329.806 119.556C329.806 119.556 329.802 119.548 329.802 119.544C329.782 119.476 329.762 119.412 329.734 119.348C329.706 119.268 329.67 119.188 329.63 119.112C329.594 119.04 329.554 118.968 329.51 118.9C329.466 118.832 329.418 118.764 329.366 118.7C329.318 118.632 329.262 118.565 329.202 118.505C329.142 118.441 329.078 118.381 329.014 118.325C328.962 118.277 328.91 118.237 328.854 118.197C328.806 118.161 328.754 118.125 328.706 118.097C328.658 118.065 328.61 118.037 328.559 118.009C328.511 117.981 328.463 117.957 328.411 117.933C328.371 117.913 328.331 117.893 328.287 117.881C328.227 117.853 328.163 117.829 328.099 117.809L249.704 90.3698C249.676 90.3618 249.652 90.3498 249.624 90.3458C249.56 90.3258 249.496 90.3098 249.432 90.2938C249.368 90.2778 249.304 90.2658 249.24 90.2578C249.04 90.2258 248.84 90.2178 248.648 90.2338C248.58 90.2378 248.512 90.2458 248.448 90.2578C248.392 90.2658 248.336 90.2738 248.284 90.2858C248.232 90.2978 248.18 90.3098 248.128 90.3258C248.088 90.3378 248.044 90.3498 248.004 90.3658C247.992 90.3658 247.98 90.3738 247.968 90.3778L170.337 118.201C170.337 118.201 170.297 118.213 170.273 118.225C170.205 118.249 170.141 118.273 170.077 118.305C170.017 118.333 169.953 118.361 169.893 118.397C169.429 118.648 169.046 119.048 168.806 119.544C168.79 119.576 168.778 119.608 168.762 119.644C168.742 119.688 168.722 119.736 168.706 119.784C168.706 119.788 168.702 119.792 168.702 119.796C168.686 119.844 168.67 119.892 168.654 119.944C168.642 119.988 168.63 120.036 168.618 120.084C168.602 120.148 168.59 120.212 168.582 120.276C168.57 120.34 168.562 120.408 168.558 120.472C168.554 120.536 168.55 120.604 168.55 120.667C168.55 120.811 168.562 120.955 168.586 121.095C168.61 121.231 168.642 121.371 168.69 121.503C168.71 121.567 168.734 121.631 168.758 121.695C168.758 121.695 168.762 121.695 168.762 121.699C168.79 121.763 168.822 121.827 168.854 121.887C168.886 121.943 168.918 122.003 168.954 122.055C168.994 122.119 169.034 122.179 169.078 122.239C169.122 122.295 169.166 122.351 169.213 122.403C169.317 122.519 169.429 122.627 169.557 122.723C169.653 122.799 169.761 122.87 169.869 122.934C169.933 122.97 169.997 123.002 170.065 123.03C170.129 123.062 170.197 123.09 170.269 123.114C170.325 123.138 170.385 123.154 170.449 123.17C170.461 123.178 170.469 123.178 170.481 123.182L170.561 123.202L208.251 133.222V151.341C208.251 151.437 208.255 151.529 208.263 151.621V151.629C208.159 152.684 208.707 153.74 209.714 154.228C218.102 158.302 231.776 163.195 249.256 163.335H250.027C267.059 163.335 280.473 158.79 288.769 154.939C289.809 154.456 290.38 153.372 290.261 152.293C290.281 152.161 290.293 152.025 290.293 151.889V133.769L300.14 130.899L300.048 150.246C296.789 151.281 294.435 154.22 294.435 157.67C294.435 160.229 295.73 162.504 297.729 163.935C295.71 166.298 294.435 170 294.435 174.234C294.435 177.381 295.142 180.235 296.334 182.462C295.59 183.434 295.074 184.749 294.918 186.265C294.57 189.695 296.23 192.482 298.785 192.742C298.912 192.754 299.04 192.762 299.168 192.762C300.496 192.762 301.739 192.05 302.631 190.767C302.923 190.343 303.17 189.859 303.366 189.339C303.642 189.959 303.994 190.519 304.398 190.986C305.309 192.034 306.465 192.602 307.648 192.602C307.888 192.602 308.132 192.578 308.372 192.53C310.479 192.118 311.814 190.043 311.814 187.44C311.814 186.928 311.762 186.401 311.654 185.857C311.399 184.545 310.839 183.338 310.071 182.454C310.011 182.386 309.955 182.322 309.895 182.259C311.023 180.064 311.686 177.285 311.686 174.234C311.686 169.768 310.267 165.894 308.056 163.559C309.775 162.12 310.863 160.013 310.863 157.67C310.863 154.216 308.504 151.281 305.245 150.246L305.345 129.491H304.998L327.903 122.814L328.035 122.779C328.083 122.763 328.131 122.751 328.179 122.731C328.243 122.707 328.307 122.683 328.367 122.659C328.439 122.627 328.511 122.587 328.578 122.551C328.646 122.511 328.714 122.471 328.778 122.427C328.838 122.387 328.898 122.343 328.954 122.295C328.982 122.275 329.01 122.251 329.034 122.227C329.086 122.183 329.13 122.139 329.178 122.087H329.182C329.182 122.087 329.218 122.051 329.23 122.031C329.274 121.983 329.314 121.939 329.35 121.887C329.358 121.883 329.362 121.879 329.362 121.871C329.402 121.827 329.434 121.779 329.466 121.731C329.482 121.707 329.498 121.683 329.514 121.659C329.534 121.631 329.55 121.603 329.566 121.571C329.582 121.543 329.598 121.515 329.614 121.483C329.646 121.423 329.678 121.359 329.702 121.295C329.754 121.175 329.794 121.051 329.826 120.927C329.838 120.891 329.846 120.855 329.85 120.819C329.85 120.819 329.85 120.815 329.85 120.811C329.862 120.775 329.87 120.739 329.874 120.699C329.91 120.484 329.918 120.256 329.894 120.032ZM285.095 150.893C277.203 154.36 265.128 158.138 250.027 158.138H249.296C233.771 158.014 221.441 153.928 213.449 150.242V148.063C219.574 144.492 226.355 142.461 233.075 142.189C238.417 141.969 243.734 142.817 248.88 144.704L248.884 144.708C248.912 144.696 248.944 144.684 248.972 144.676C252.514 143.409 259.723 141.522 268.791 142.809C276.123 143.857 281.693 146.559 285.095 148.662V150.893ZM285.095 142.669C281.125 140.57 275.915 138.575 269.522 137.664C260.622 136.396 253.286 137.871 248.912 139.219H248.908C243.67 137.524 238.285 136.776 232.868 136.996C226.251 137.264 219.598 139.035 213.449 142.149V122.311C224.368 117.909 236.422 115.594 248.428 115.59H248.456C264.121 115.59 276.803 119.452 285.095 122.962V142.669ZM303.059 182.047C302.803 182.047 302.523 181.939 302.235 181.727C302.227 181.727 302.219 181.711 302.207 181.703C302.123 181.643 302.035 181.567 301.947 181.487C301.947 181.479 301.943 181.479 301.939 181.475C300.784 180.371 299.632 177.745 299.632 174.234C299.632 169.537 301.695 166.418 303.059 166.418C304.422 166.418 306.489 169.537 306.489 174.234C306.489 178.932 304.426 182.047 303.059 182.047ZM305.665 157.67C305.665 159.121 304.31 160.305 302.647 160.305C300.983 160.305 299.632 159.121 299.632 157.67C299.632 156.219 300.983 155.039 302.647 155.039C304.31 155.039 305.665 156.219 305.665 157.67ZM290.293 128.356V121.807C290.293 121.715 290.289 121.623 290.281 121.535C290.396 120.448 289.809 119.36 288.753 118.888C276.307 113.331 262.374 110.392 248.456 110.392H248.424C235.142 110.396 221.801 113.087 209.83 118.181C208.783 118.624 208.179 119.68 208.259 120.759V120.767C208.255 120.831 208.251 120.899 208.251 120.967V127.84L179.88 120.3L248.856 95.5793L318.791 120.056L290.293 128.356Z" fill="#1D1D1B"/>
<path d="M248.971 144.676L248.951 144.732C248.927 144.724 248.908 144.716 248.884 144.708C248.912 144.696 248.943 144.684 248.971 144.676Z" fill="#1D1D1B"/>
<path d="M302.207 181.703C302.123 181.643 302.035 181.567 301.947 181.487C302.039 181.551 302.123 181.627 302.207 181.703Z" fill="#1D1D1B"/>
<rect x="-44.5586" y="-499" width="565.248" height="547" rx="263.336" transform="rotate(48.1476 -44.5586 -499)" fill="#C58B8B" fill-opacity="0.3"/>
<path d="M1455.46 -162.265L1466.2 174.636C1318.6 171.265 1270.28 69.3668 1264.58 18.8389C1270.63 -120.29 1394.35 -159.867 1455.46 -162.265Z" fill="#F4E7E7" fill-opacity="0.5"/>
<rect x="1478.3" y="314" width="573.749" height="526.672" rx="263.336" transform="rotate(48.1476 1478.3 314)" fill="#C58B8B" fill-opacity="0.3"/>
<path d="M5.96777 775.746L4 422.982C136.071 430.695 177.016 538.67 180.979 591.693C172.401 737.075 60.7307 774.971 5.96777 775.746Z" fill="#F4E7E7" fill-opacity="0.5"/>
</g>
<defs>
<filter id="filter0_d_170_109" x="0" y="0" width="1448" height="636" filterUnits="userSpaceOnUse" color-interpolation-filters="sRGB">
<feFlood flood-opacity="0" result="BackgroundImageFix"/>
<feColorMatrix in="SourceAlpha" type="matrix" values="0 0 0 0 0 0 0 0 0 0 0 0 0 0 0 0 0 0 127 0" result="hardAlpha"/>
<feOffset dy="4"/>
<feGaussianBlur stdDeviation="2"/>
<feComposite in2="hardAlpha" operator="out"/>
<feColorMatrix type="matrix" values="0 0 0 0 0 0 0 0 0 0 0 0 0 0 0 0 0 0 0.25 0"/>
<feBlend mode="normal" in2="BackgroundImageFix" result="effect1_dropShadow_170_109"/>
<feBlend mode="normal" in="SourceGraphic" in2="effect1_dropShadow_170_109" result="shape"/>
</filter>
<clipPath id="clip0_170_109">
<rect width="1440" height="628" fill="white" transform="translate(4)"/>
</clipPath>
</defs>
</svg>
