<svg width="363" height="469" viewBox="0 0 363 469" fill="none" xmlns="http://www.w3.org/2000/svg">
<g clip-path="url(#clip0_92_30)">
<rect width="363" height="469" fill="white"/>
<path d="M252.842 35.2105L241.143 35.1891C241.135 35.1891 241.128 35.1828 241.128 35.174V31.078C241.128 30.5337 240.792 30.0272 240.272 29.866C240.115 29.8168 239.959 29.8017 239.803 29.8206C239.76 29.8156 239.717 29.8131 239.674 29.8131H224.768C224.695 29.8131 224.622 29.8194 224.553 29.8332C224.552 29.8332 224.55 29.8332 224.548 29.8332C224.477 29.8194 224.404 29.8131 224.33 29.8131C223.67 29.8131 223.133 30.3485 223.133 31.01V34.9497C223.133 35.0241 223.139 35.0971 223.152 35.1677C223.153 35.1765 223.147 35.1853 223.138 35.1853H211.808L211.663 35.2143C211.648 35.2168 211.582 35.2282 211.427 35.2508C209.579 35.5192 208.125 37.1029 207.887 39.0658C207.882 39.1024 207.877 39.1389 207.874 39.1755V67.1001C207.874 67.1001 207.874 67.1001 207.874 67.1014C207.878 67.1568 207.884 67.2123 207.893 67.2652C208.146 69.2143 209.623 70.7816 211.495 71.0462C211.641 71.0676 211.711 71.0789 211.735 71.0815C211.738 71.0815 211.741 71.0815 211.745 71.0789L211.877 70.9907L211.843 71.0865L219.145 71.1117V71.1155H252.861L253.005 71.0865C253.023 71.0827 253.09 71.0714 253.241 71.0487C255.081 70.7828 256.528 69.2143 256.778 67.2652C256.784 67.2236 256.789 67.182 256.793 67.1404V39.1855C256.79 39.1452 256.785 39.1036 256.78 39.0646C256.537 37.1004 255.055 35.5192 253.173 35.2534C253.014 35.2307 252.946 35.2193 252.929 35.2156L252.842 35.2093V35.2105ZM225.526 34.9497V32.222C225.526 32.2132 225.532 32.2069 225.541 32.2069H238.718C238.727 32.2069 238.733 32.2132 238.733 32.222V35.174C238.733 35.1828 238.727 35.1891 238.718 35.1891H225.502C225.502 35.1891 225.502 35.1866 225.503 35.1853C225.518 35.1097 225.526 35.0304 225.526 34.9497ZM211.767 37.6207C211.893 37.6018 211.979 37.588 212.033 37.5792C212.033 37.5792 212.034 37.5792 212.036 37.5792H218.213V37.5829H252.563C252.563 37.5829 252.564 37.5829 252.566 37.5829C252.624 37.593 252.712 37.6069 252.837 37.6245C253.508 37.7203 254.253 38.3364 254.398 39.3077C254.398 39.3077 254.398 39.309 254.398 39.3103V47.2779C254.398 47.2842 254.393 47.2905 254.386 47.2931C249.247 48.6298 243.94 49.5785 238.591 50.1203C238.582 50.1203 238.574 50.114 238.574 50.1052V49.3278C238.574 48.6588 238.031 48.1158 237.362 48.1158H227.288C227.238 48.1158 227.214 48.117 227.16 48.1158C227.113 48.117 227.039 48.1158 226.987 48.1158C226.326 48.1158 225.79 48.6525 225.79 49.3127V50.1959C225.749 50.1921 225.706 50.1871 225.663 50.182C220.512 49.61 215.345 48.6349 210.278 47.2805C210.272 47.2792 210.267 47.2729 210.267 47.2653V39.314C210.267 39.314 210.267 39.3128 210.267 39.3115C210.402 38.3326 211.121 37.7127 211.767 37.6195V37.6207ZM226.871 50.3093L226.858 50.4302C226.759 50.3924 226.666 50.3408 226.581 50.2791C226.678 50.2904 226.774 50.2992 226.871 50.3093ZM228.199 50.5096H236.165C236.174 50.5096 236.181 50.5159 236.181 50.5247V55.8857C236.181 55.8945 236.174 55.9008 236.165 55.9008H228.199C228.19 55.9008 228.184 55.8945 228.184 55.8857V50.5247C228.184 50.5159 228.19 50.5096 228.199 50.5096ZM252.897 68.6813C252.776 68.699 252.69 68.7128 252.632 68.7229C252.632 68.7229 252.631 68.7229 252.63 68.7229H246.453V68.7191H212.11C212.11 68.7191 212.109 68.7191 212.107 68.7191C212.048 68.709 211.959 68.6952 211.829 68.6775C211.155 68.5818 210.408 67.9607 210.267 66.983C210.267 66.983 210.267 66.9817 210.267 66.9804V49.7726C210.267 49.7625 210.276 49.7562 210.286 49.7575C215.269 51.0564 220.341 51.9976 225.398 52.5608C225.524 52.5746 225.651 52.5885 225.776 52.6023C225.784 52.6023 225.79 52.6099 225.79 52.6175V56.9541C225.79 56.978 225.79 57.0019 225.793 57.0259C225.791 57.0486 225.79 57.0725 225.79 57.0964C225.79 57.7579 226.326 58.2934 226.987 58.2934H237.377C238.038 58.2934 238.574 57.7579 238.574 57.0964C238.574 56.9604 238.552 56.8306 238.509 56.7084C238.509 56.7059 238.509 56.7021 238.509 56.6996C238.552 56.5786 238.574 56.4476 238.574 56.3115V52.5368C238.574 52.5293 238.581 52.523 238.588 52.5217C243.929 51.9951 249.235 51.069 254.379 49.7638C254.389 49.7612 254.398 49.7688 254.398 49.7789V66.9956C254.398 66.9956 254.398 66.9968 254.398 66.9981C254.259 67.9707 253.542 68.5868 252.897 68.6801V68.6813ZM238.577 56.3657L238.564 57.0763L238.577 56.3657Z" fill="#1D1D1B"/>
<path d="M238.577 56.3657L238.564 57.0763M252.842 35.2105L241.143 35.1891C241.135 35.1891 241.128 35.1828 241.128 35.174V31.078C241.128 30.5337 240.792 30.0272 240.272 29.866C240.115 29.8168 239.959 29.8017 239.803 29.8206C239.76 29.8156 239.717 29.8131 239.674 29.8131H224.768C224.695 29.8131 224.622 29.8194 224.553 29.8332C224.552 29.8332 224.55 29.8332 224.548 29.8332C224.477 29.8194 224.404 29.8131 224.33 29.8131C223.67 29.8131 223.133 30.3485 223.133 31.01V34.9497C223.133 35.0241 223.139 35.0971 223.152 35.1677C223.153 35.1765 223.147 35.1853 223.138 35.1853H211.808L211.663 35.2143C211.648 35.2168 211.582 35.2282 211.427 35.2508C209.579 35.5192 208.125 37.1029 207.887 39.0658C207.882 39.1024 207.877 39.1389 207.874 39.1755V67.1001C207.874 67.1001 207.874 67.1001 207.874 67.1014C207.878 67.1568 207.884 67.2123 207.893 67.2652C208.146 69.2143 209.623 70.7816 211.495 71.0462C211.641 71.0676 211.711 71.0789 211.735 71.0814C211.738 71.0814 211.741 71.0815 211.745 71.0789L211.877 70.9907L211.843 71.0865L219.145 71.1117V71.1155H252.861L253.005 71.0865C253.023 71.0827 253.09 71.0714 253.241 71.0487C255.081 70.7828 256.528 69.2143 256.778 67.2652C256.784 67.2236 256.789 67.182 256.793 67.1404V39.1855C256.79 39.1452 256.785 39.1036 256.78 39.0646C256.537 37.1004 255.055 35.5192 253.173 35.2534C253.014 35.2307 252.946 35.2193 252.929 35.2156L252.842 35.2093V35.2105ZM225.526 34.9497V32.222C225.526 32.2132 225.532 32.2069 225.541 32.2069H238.718C238.727 32.2069 238.733 32.2132 238.733 32.222V35.174C238.733 35.1828 238.727 35.1891 238.718 35.1891H225.502C225.502 35.1891 225.502 35.1866 225.503 35.1853C225.518 35.1097 225.526 35.0304 225.526 34.9497ZM211.767 37.6207C211.893 37.6018 211.979 37.588 212.033 37.5792C212.033 37.5792 212.034 37.5792 212.036 37.5792H218.213V37.5829H252.563C252.563 37.5829 252.564 37.5829 252.566 37.5829C252.624 37.593 252.712 37.6069 252.837 37.6245C253.508 37.7203 254.253 38.3364 254.398 39.3077C254.398 39.3077 254.398 39.309 254.398 39.3103V47.2779C254.398 47.2842 254.393 47.2905 254.386 47.2931C249.247 48.6298 243.94 49.5785 238.591 50.1203C238.582 50.1203 238.574 50.114 238.574 50.1052V49.3278C238.574 48.6588 238.031 48.1158 237.362 48.1158H227.288C227.238 48.1158 227.214 48.117 227.16 48.1158C227.113 48.117 227.039 48.1158 226.987 48.1158C226.326 48.1158 225.79 48.6525 225.79 49.3127V50.1959C225.749 50.1921 225.706 50.1871 225.663 50.182C220.512 49.61 215.345 48.6349 210.278 47.2805C210.272 47.2792 210.267 47.2729 210.267 47.2653V39.314C210.267 39.314 210.267 39.3128 210.267 39.3115C210.402 38.3326 211.121 37.7127 211.767 37.6195V37.6207ZM226.871 50.3093L226.858 50.4302C226.759 50.3924 226.666 50.3408 226.581 50.2791C226.678 50.2904 226.774 50.2992 226.871 50.3093ZM228.199 50.5096H236.165C236.174 50.5096 236.181 50.5159 236.181 50.5247V55.8857C236.181 55.8945 236.174 55.9008 236.165 55.9008H228.199C228.19 55.9008 228.184 55.8945 228.184 55.8857V50.5247C228.184 50.5159 228.19 50.5096 228.199 50.5096ZM252.897 68.6813C252.776 68.699 252.69 68.7128 252.632 68.7229C252.632 68.7229 252.631 68.7229 252.63 68.7229H246.453V68.7191H212.11C212.11 68.7191 212.109 68.7191 212.107 68.7191C212.048 68.709 211.959 68.6952 211.829 68.6775C211.155 68.5818 210.408 67.9606 210.267 66.983C210.267 66.983 210.267 66.9817 210.267 66.9804V49.7726C210.267 49.7625 210.276 49.7562 210.286 49.7575C215.269 51.0564 220.341 51.9976 225.398 52.5608C225.524 52.5746 225.651 52.5885 225.776 52.6023C225.784 52.6023 225.79 52.6099 225.79 52.6175V56.9541C225.79 56.978 225.79 57.0019 225.793 57.0259C225.791 57.0486 225.79 57.0725 225.79 57.0964C225.79 57.7579 226.326 58.2934 226.987 58.2934H237.377C238.038 58.2934 238.574 57.7579 238.574 57.0964C238.574 56.9604 238.552 56.8306 238.509 56.7084C238.509 56.7059 238.509 56.7021 238.509 56.6996C238.552 56.5786 238.574 56.4476 238.574 56.3115V52.5368C238.574 52.5293 238.581 52.523 238.588 52.5217C243.929 51.9951 249.235 51.069 254.379 49.7638C254.389 49.7612 254.398 49.7688 254.398 49.7789V66.9956C254.398 66.9956 254.398 66.9968 254.398 66.9981C254.259 67.9707 253.542 68.5868 252.897 68.6801V68.6813Z" stroke="#1D1D1B" stroke-miterlimit="10"/>
<path d="M207.869 38.8833C207.864 38.9198 207.859 38.9564 207.857 38.9929V38.8833H207.869Z" fill="#1D1D1B"/>
<path d="M207.875 67.0837H207.857V66.9187C207.86 66.9741 207.867 67.0296 207.875 67.0837Z" fill="#1D1D1B"/>
<path d="M256.775 38.8833V39.0043C256.773 38.9639 256.768 38.9224 256.762 38.8833H256.775Z" fill="#1D1D1B"/>
<path d="M256.76 67.0837C256.766 67.0421 256.771 67.0006 256.775 66.959V67.0837H256.76Z" fill="#1D1D1B"/>
<rect x="413.997" y="189" width="502.262" height="455.111" rx="227.556" transform="rotate(48.1476 413.997 189)" fill="#C58B8B" fill-opacity="0.22"/>
<rect x="-88.7003" y="-497" width="573.749" height="526.672" rx="263.336" transform="rotate(48.1476 -88.7003 -497)" fill="#C58B8B" fill-opacity="0.3"/>
</g>
<defs>
<clipPath id="clip0_92_30">
<rect width="363" height="469" fill="white"/>
</clipPath>
</defs>
</svg>
