<svg width="1448" height="783" viewBox="0 0 1448 783" fill="none" xmlns="http://www.w3.org/2000/svg">
<g clip-path="url(#clip0_203_88)" filter="url(#filter0_d_203_88)">
<rect width="1440" height="775" transform="translate(4)" fill="white"/>
<rect x="-44.5586" y="-499" width="565.248" height="547" rx="263.336" transform="rotate(48.1476 -44.5586 -499)" fill="#C58B8B" fill-opacity="0.3"/>
<path d="M1455.46 -162.265L1466.2 174.636C1318.6 171.265 1270.28 69.3668 1264.58 18.8389C1270.63 -120.29 1394.35 -159.867 1455.46 -162.265Z" fill="#F4E7E7" fill-opacity="0.5"/>
<rect x="1503.3" y="468" width="573.749" height="526.672" rx="263.336" transform="rotate(48.1476 1503.3 468)" fill="#C58B8B" fill-opacity="0.3"/>
<path d="M3.96777 925.746L2 572.982C134.071 580.695 175.016 688.67 178.979 741.693C170.401 887.075 58.7307 924.971 3.96777 925.746Z" fill="#F4E7E7" fill-opacity="0.5"/>
</g>
<defs>
<filter id="filter0_d_203_88" x="0" y="0" width="1448" height="783" filterUnits="userSpaceOnUse" color-interpolation-filters="sRGB">
<feFlood flood-opacity="0" result="BackgroundImageFix"/>
<feColorMatrix in="SourceAlpha" type="matrix" values="0 0 0 0 0 0 0 0 0 0 0 0 0 0 0 0 0 0 127 0" result="hardAlpha"/>
<feOffset dy="4"/>
<feGaussianBlur stdDeviation="2"/>
<feComposite in2="hardAlpha" operator="out"/>
<feColorMatrix type="matrix" values="0 0 0 0 0 0 0 0 0 0 0 0 0 0 0 0 0 0 0.25 0"/>
<feBlend mode="normal" in2="BackgroundImageFix" result="effect1_dropShadow_203_88"/>
<feBlend mode="normal" in="SourceGraphic" in2="effect1_dropShadow_203_88" result="shape"/>
</filter>
<clipPath id="clip0_203_88">
<rect width="1440" height="775" fill="white" transform="translate(4)"/>
</clipPath>
</defs>
</svg>
